<svg width="58" height="65" viewBox="0 0 58 65" fill="none" xmlns="http://www.w3.org/2000/svg">
<path fill-rule="evenodd" clip-rule="evenodd" d="M53.045 0H4.61261C3.38927 0 2.21604 0.48597 1.351 1.351C0.48597 2.21604 0 3.38927 0 4.61261V55.3514C0 56.5747 0.48597 57.7479 1.351 58.613C2.21604 59.478 3.38927 59.964 4.61261 59.964H53.045C54.2684 59.964 55.4416 59.478 56.3067 58.613C57.1717 57.7479 57.6577 56.5747 57.6577 55.3514V4.61261C57.6577 3.38927 57.1717 2.21604 56.3067 1.351C55.4416 0.48597 54.2684 0 53.045 0ZM55.3514 19.6036C55.3501 20.0066 55.243 20.4023 55.0406 20.7508C54.8382 21.0993 54.5477 21.3885 54.1982 21.5893V38.3746C54.5477 38.5754 54.8382 38.8646 55.0406 39.2132C55.243 39.5617 55.3501 39.9573 55.3514 40.3604V49.5856C55.3501 49.9886 55.243 50.3843 55.0406 50.7328C54.8382 51.0813 54.5477 51.3705 54.1982 51.5713V53.045C54.1982 53.9626 53.8337 54.8425 53.1849 55.4913C52.5362 56.14 51.6562 56.5045 50.7387 56.5045H6.91892C6.00141 56.5045 5.12149 56.14 4.47271 55.4913C3.82394 54.8425 3.45946 53.9626 3.45946 53.045V6.91892C3.45946 6.00141 3.82394 5.12149 4.47271 4.47271C5.12149 3.82394 6.00141 3.45946 6.91892 3.45946H50.7387C51.6562 3.45946 52.5362 3.82394 53.1849 4.47271C53.8337 5.12149 54.1982 6.00141 54.1982 6.91892V8.39265C54.5477 8.59346 54.8382 8.88264 55.0406 9.23117C55.243 9.57971 55.3501 9.97534 55.3514 10.3784V19.6036ZM19.219 16.753C22.0635 14.8523 25.4078 13.8378 28.8289 13.8378C33.4148 13.843 37.8114 15.6671 41.0542 18.9098C44.2969 22.1526 46.121 26.5492 46.1262 31.1351C46.1262 34.5562 45.1117 37.9005 43.2111 40.745C41.3104 43.5895 38.6089 45.8066 35.4483 47.1158C32.2876 48.4249 28.8097 48.7675 25.4543 48.1001C22.099 47.4327 19.0169 45.7852 16.5978 43.3662C14.1788 40.9471 12.5314 37.865 11.8639 34.5097C11.1965 31.1543 11.5391 27.6764 12.8483 24.5157C14.1574 21.3551 16.3745 18.6536 19.219 16.753ZM34.5946 29.982V29.8551C35.7071 28.7198 36.4595 27.2813 36.7577 25.72C37.0558 24.1587 36.8864 22.5442 36.2706 21.0788C35.6549 19.6134 34.6202 18.3625 33.2963 17.4828C31.9725 16.6031 30.4184 16.1338 28.8289 16.1338C27.2394 16.1338 25.6853 16.6031 24.3614 17.4828C23.0375 18.3625 22.0029 19.6134 21.3871 21.0788C20.7714 22.5442 20.6019 24.1587 20.9001 25.72C21.1982 27.2813 21.9507 28.7198 23.0631 29.8551V29.982C23.0643 30.385 23.1715 30.7807 23.3739 31.1292C23.5763 31.4777 23.8668 31.7669 24.2163 31.9677V41.5054C24.215 41.8088 24.2739 42.1094 24.3895 42.3899C24.505 42.6703 24.6751 42.9251 24.8897 43.1395L27.196 45.4458C27.4102 45.6602 27.6646 45.8303 27.9445 45.9464C28.2245 46.0624 28.5246 46.1222 28.8277 46.1222C29.1308 46.1222 29.4309 46.0624 29.7109 45.9464C29.9909 45.8303 30.2452 45.6602 30.4594 45.4458L32.2883 43.6134C32.7194 43.1798 32.9614 42.5932 32.9614 41.9817C32.9614 41.3702 32.7194 40.7836 32.2883 40.35L31.6126 39.6673L32.2883 38.9904C32.7194 38.5568 32.9614 37.9702 32.9614 37.3587C32.9614 36.7472 32.7194 36.1606 32.2883 35.727L31.6126 35.0455L32.7657 33.8923C33.1969 33.4585 33.4397 32.8722 33.4415 32.2606V31.9677C33.7909 31.7669 34.0814 31.4777 34.2838 31.1292C34.4862 30.7807 34.5934 30.385 34.5946 29.982ZM28.8289 18.4505C27.3003 18.4523 25.8348 19.0604 24.7539 20.1413C23.673 21.2222 23.065 22.6876 23.0631 24.2163C23.0619 25.0246 23.2322 25.824 23.5628 26.5617C23.8933 27.2994 24.3767 27.9585 24.9808 28.4956C25.1031 28.6039 25.2009 28.7368 25.2679 28.8857C25.3349 29.0346 25.3695 29.196 25.3694 29.3593V29.982H32.2884V29.3593C32.2883 29.196 32.3229 29.0346 32.3899 28.8857C32.4569 28.7368 32.5548 28.6039 32.677 28.4956C33.2812 27.9585 33.7645 27.2994 34.0951 26.5617C34.4256 25.824 34.5959 25.0246 34.5947 24.2163C34.5928 22.6876 33.9848 21.2222 32.9039 20.1413C31.823 19.0604 30.3575 18.4523 28.8289 18.4505ZM28.8289 23.0631C28.6008 23.0631 28.3779 22.9955 28.1882 22.8688C27.9986 22.742 27.8508 22.5619 27.7635 22.3512C27.6763 22.1405 27.6534 21.9087 27.6979 21.685C27.7424 21.4613 27.8522 21.2558 28.0135 21.0945C28.1748 20.9333 28.3802 20.8234 28.6039 20.7789C28.8276 20.7345 29.0595 20.7573 29.2702 20.8446C29.4809 20.9319 29.661 21.0797 29.7877 21.2693C29.9144 21.4589 29.9821 21.6819 29.9821 21.9099C29.9821 22.2158 29.8606 22.5091 29.6443 22.7253C29.4281 22.9416 29.1347 23.0631 28.8289 23.0631ZM31.1087 32.2883H26.5226V41.5055L28.8289 43.8199L30.6555 41.9875L29.9821 41.3037C29.5507 40.8704 29.3086 40.2839 29.3086 39.6725C29.3086 39.0612 29.5507 38.4747 29.9821 38.0414L30.6578 37.3645L29.9821 36.6818C29.5506 36.2482 29.3084 35.6613 29.3084 35.0495C29.3084 34.4378 29.5506 33.8509 29.9821 33.4173L31.1087 32.2883ZM40.6982 64.2388C40.4819 64.0226 40.3604 63.7293 40.3604 63.4234V62.2703H51.892V63.4234C51.892 63.7293 51.7705 64.0226 51.5542 64.2388C51.338 64.4551 51.0446 64.5766 50.7388 64.5766H41.5136C41.2077 64.5766 40.9144 64.4551 40.6982 64.2388ZM5.76584 63.4234C5.76584 63.7293 5.88733 64.0226 6.10359 64.2388C6.31985 64.4551 6.61315 64.5766 6.91899 64.5766H16.1442C16.4501 64.5766 16.7434 64.4551 16.9596 64.2388C17.1759 64.0226 17.2974 63.7293 17.2974 63.4234V62.2703H5.76584V63.4234ZM53.0451 40.3604H50.7388V49.5857H53.0451V40.3604ZM50.7388 10.3784H53.0451V19.6036H50.7388V10.3784ZM48.4325 40.3604V49.5857C48.4325 50.1973 48.6755 50.7839 49.108 51.2165C49.5405 51.649 50.1271 51.892 50.7388 51.892H51.892V53.0451C51.892 53.351 51.7705 53.6443 51.5542 53.8605C51.338 54.0768 51.0446 54.1983 50.7388 54.1983H6.91899C6.61315 54.1983 6.31985 54.0768 6.10359 53.8605C5.88733 53.6443 5.76584 53.351 5.76584 53.0451V6.91899C5.76584 6.61315 5.88733 6.31985 6.10359 6.10359C6.31985 5.88733 6.61315 5.76584 6.91899 5.76584H50.7388C51.0446 5.76584 51.338 5.88733 51.5542 6.10359C51.7705 6.31985 51.892 6.61315 51.892 6.91899V8.07214H50.7388C50.1271 8.07214 49.5405 8.31513 49.108 8.74764C48.6755 9.18016 48.4325 9.76678 48.4325 10.3784V19.6037C48.4325 20.2153 48.6755 20.802 49.108 21.2345C49.5405 21.667 50.1271 21.91 50.7388 21.91H51.892V38.0541H50.7388C50.1271 38.0541 49.5405 38.2971 49.108 38.7296C48.6755 39.1621 48.4325 39.7488 48.4325 40.3604ZM17.9377 47.435C21.1615 49.5891 24.9517 50.7388 28.8289 50.7388C34.0263 50.733 39.0092 48.6658 42.6843 44.9906C46.3595 41.3155 48.4267 36.3326 48.4325 31.1352C48.4325 27.258 47.2828 23.4678 45.1287 20.244C42.9746 17.0202 39.913 14.5076 36.3309 13.0238C32.7488 11.5401 28.8072 11.1519 25.0044 11.9083C21.2017 12.6647 17.7087 14.5318 14.9671 17.2734C12.2254 20.015 10.3584 23.508 9.60197 27.3107C8.84556 31.1135 9.23378 35.0551 10.7175 38.6372C12.2013 42.2193 14.7139 45.2809 17.9377 47.435Z" fill="url(#paint0_linear_15_1983)"/>
<defs>
<linearGradient id="paint0_linear_15_1983" x1="28.8288" y1="64.5765" x2="28.8288" y2="-3.07925e-05" gradientUnits="userSpaceOnUse">
<stop stop-color="#00B59C"/>
<stop offset="1" stop-color="#58D66C"/>
</linearGradient>
</defs>
</svg>
