<svg width="65" height="65" viewBox="0 0 65 65" fill="none" xmlns="http://www.w3.org/2000/svg">
<path fill-rule="evenodd" clip-rule="evenodd" d="M63.5661 27.9896C63.866 28.2974 64.0576 28.6945 64.1119 29.1208H64.1075C64.3218 31.124 64.3218 33.1442 64.1075 35.1474C64.0497 35.5724 63.857 35.9676 63.5578 36.2748C63.2585 36.582 62.8685 36.7851 62.4452 36.854L58.1774 37.5533C57.5005 40.8175 56.2123 43.9241 54.3806 46.7095L56.9018 50.2336C57.1579 50.5803 57.2944 51.0007 57.2908 51.4316C57.2872 51.8626 57.1437 52.2807 56.8819 52.623C56.2437 53.4001 55.5665 54.1443 54.8527 54.8527C54.1466 55.5684 53.4022 56.2454 52.623 56.8808C52.282 57.1462 51.8632 57.2919 51.4311 57.2955C50.9991 57.2991 50.5779 57.1604 50.2325 56.9007L46.7084 54.3795C43.9235 56.2114 40.8172 57.5 37.5533 58.1774L36.854 62.4452C36.7885 62.8699 36.5865 63.2618 36.2786 63.5617C35.9708 63.8616 35.5737 64.0531 35.1474 64.1075C33.1442 64.3218 31.124 64.3218 29.1208 64.1075C28.6945 64.0531 28.2975 63.8616 27.9896 63.5617C27.6817 63.2618 27.4797 62.8699 27.4142 62.4452L26.7149 58.1774C23.4507 57.5005 20.3441 56.2122 17.5587 54.3806L14.0346 56.9018C13.6892 57.1615 13.268 57.3002 12.836 57.2966C12.4039 57.293 11.9851 57.1473 11.6441 56.8819C10.8652 56.2462 10.1212 55.5688 9.41549 54.8527C8.7021 54.144 8.02521 53.3994 7.38744 52.6219C7.12561 52.2796 6.98208 51.8615 6.97849 51.4305C6.97489 50.9996 7.11141 50.5791 7.36749 50.2325L9.8887 46.7084C8.05681 43.9235 6.7682 40.8172 6.09082 37.5533L1.82304 36.854C1.39972 36.7851 1.00973 36.582 0.710468 36.2748C0.411209 35.9676 0.218497 35.5724 0.160703 35.1474C-0.0535576 33.1442 -0.0535576 31.124 0.160703 29.1208C0.215076 28.6945 0.406659 28.2974 0.706533 27.9896C1.00641 27.6817 1.39829 27.4797 1.82304 27.4142L6.09082 26.7149C6.7682 23.451 8.05681 20.3447 9.8887 17.5598L7.36749 14.0357C7.11218 13.6885 6.97614 13.268 6.97973 12.8371C6.98333 12.4062 7.12637 11.9881 7.38744 11.6452C8.02042 10.8639 8.69754 10.1195 9.41549 9.41548C10.1241 8.70238 10.8683 8.0255 11.6452 7.38743C11.9881 7.12636 12.4062 6.98332 12.8371 6.97973C13.2681 6.97613 13.6885 7.11217 14.0357 7.36748L17.5598 9.8887C20.3448 8.05681 23.451 6.76819 26.7149 6.09081L27.4142 1.82303C27.4797 1.39829 27.6817 1.0064 27.9896 0.706525C28.2975 0.406651 28.6945 0.215068 29.1208 0.160696C31.124 -0.0535652 33.1442 -0.0535652 35.1474 0.160696C35.5737 0.215068 35.9708 0.406651 36.2786 0.706525C36.5865 1.0064 36.7885 1.39829 36.854 1.82303L37.5533 6.09081C40.8172 6.76819 43.9235 8.05681 46.7084 9.8887L50.2325 7.36748C50.5797 7.11217 51.0002 6.97613 51.4311 6.97973C51.862 6.98332 52.2801 7.12636 52.623 7.38743C53.3999 8.0255 54.1441 8.70238 54.8527 9.41548C55.5707 10.1195 56.2478 10.8639 56.8808 11.6452C57.1419 11.9881 57.2849 12.4062 57.2885 12.8371C57.2921 13.268 57.156 13.6885 56.9007 14.0357L54.3795 17.5598C56.2114 20.3447 57.5 23.451 58.1774 26.7149L62.4496 27.4142C62.8744 27.4797 63.2662 27.6817 63.5661 27.9896ZM19.8202 50.5632C23.4651 52.9987 27.7504 54.2986 32.1341 54.2986C38.0104 54.2919 43.6441 51.9545 47.7993 47.7993C51.9545 43.6441 54.2919 38.0104 54.2986 32.1341C54.2986 27.7504 52.9987 23.4651 50.5632 19.8202C48.1278 16.1752 44.6661 13.3343 40.6161 11.6568C36.5661 9.97919 32.1095 9.54026 27.81 10.3955C23.5105 11.2507 19.5612 13.3617 16.4614 16.4614C13.3617 19.5612 11.2507 23.5105 10.3955 27.81C9.54027 32.1095 9.9792 36.5661 11.6568 40.6161C13.3344 44.6661 16.1752 48.1277 19.8202 50.5632ZM32.1341 12.186C28.1888 12.186 24.332 13.356 21.0516 15.5479C17.7712 17.7398 15.2144 20.8553 13.7045 24.5003C12.1947 28.1453 11.7997 32.1562 12.5694 36.0258C13.3391 39.8953 15.239 43.4497 18.0287 46.2395C20.8185 49.0293 24.3729 50.9291 28.2425 51.6988C32.112 52.4685 36.1229 52.0735 39.7679 50.5637C43.413 49.0539 46.5284 46.4971 48.7203 43.2166C50.9123 39.9362 52.0822 36.0794 52.0822 32.1341C52.076 26.8454 49.9724 21.7751 46.2327 18.0355C42.4931 14.2958 37.4228 12.1922 32.1341 12.186ZM46.5411 39.2788C46.5404 39.6935 46.4318 40.1009 46.226 40.4609C46.0203 40.8209 45.7244 41.1213 45.3675 41.3323L33.3377 48.425C32.9732 48.6405 32.5575 48.7541 32.1341 48.7541C31.7107 48.7541 31.2951 48.6405 30.9306 48.425L18.8997 41.3323C18.5429 41.1212 18.2472 40.8208 18.0416 40.4608C17.836 40.1007 17.7277 39.6934 17.7272 39.2788V24.9894C17.7279 24.5747 17.8365 24.1673 18.0422 23.8073C18.248 23.4472 18.5439 23.1469 18.9008 22.9358L30.9306 15.8432C31.2953 15.6283 31.7108 15.5149 32.1341 15.5149C32.5574 15.5149 32.973 15.6283 33.3377 15.8432L45.3686 22.9358C45.7254 23.147 46.0211 23.4473 46.2267 23.8074C46.4322 24.1674 46.5406 24.5748 46.5411 24.9894V39.2788ZM32.1341 17.7271C32.1615 17.7271 32.1884 17.7348 32.2117 17.7493L44.2448 24.8453C44.2695 24.8602 44.2899 24.8814 44.3039 24.9067C44.3179 24.932 44.325 24.9605 44.3246 24.9894V39.2788C44.3247 39.3078 44.3173 39.3363 44.3031 39.3615C44.289 39.3868 44.2685 39.4079 44.2437 39.4229L32.2117 46.5155C32.1883 46.5297 32.1614 46.5372 32.1341 46.5372C32.1067 46.5372 32.0799 46.5297 32.0565 46.5155L20.0234 39.4229C19.9987 39.408 19.9783 39.3868 19.9643 39.3615C19.9503 39.3362 19.9431 39.3077 19.9436 39.2788V24.9872C19.9433 24.958 19.9506 24.9293 19.9648 24.9038C19.979 24.8783 19.9995 24.857 20.0245 24.842L32.0565 17.7493C32.0798 17.7348 32.1067 17.7271 32.1341 17.7271ZM41.8148 37.9426C42.0059 37.608 42.107 37.2295 42.1081 36.8441V27.4241C42.1074 27.0388 42.0067 26.6602 41.816 26.3253C41.6253 25.9904 41.3509 25.7108 41.0198 25.5136L33.2623 20.9399C32.9209 20.7383 32.5317 20.632 32.1352 20.632C31.7387 20.632 31.3495 20.7383 31.0081 20.9399L23.2506 25.5147C22.9192 25.7115 22.6445 25.9909 22.4534 26.3255C22.2623 26.6602 22.1612 27.0387 22.1601 27.4241V36.8441C22.1608 37.2294 22.2614 37.608 22.4522 37.9429C22.6429 38.2778 22.9172 38.5574 23.2483 38.7546L31.0059 43.3283C31.3473 43.5299 31.7365 43.6362 32.133 43.6362C32.5294 43.6362 32.9187 43.5299 33.26 43.3283L41.0176 38.7535C41.349 38.5567 41.6236 38.2773 41.8148 37.9426ZM24.3765 33.9372V27.4241L32.1341 22.8494L39.8917 27.4241V33.2423L38.267 31.7285C37.8126 31.2946 37.2135 31.0446 36.5855 31.0268C35.9575 31.0089 35.3452 31.2246 34.867 31.6321L32.5187 33.6102L30.5094 31.7263C30.0549 31.2922 29.4555 31.0422 28.8272 31.0246C28.1989 31.007 27.5865 31.223 27.1083 31.631L24.3765 33.9372ZM34.037 28.4741C34.2382 28.2671 34.3507 27.9898 34.3505 27.7012C34.3505 27.4073 34.2338 27.1254 34.026 26.9176C33.8181 26.7097 33.5362 26.593 33.2423 26.593C32.8549 26.5936 32.4738 26.6916 32.1341 26.8778C31.7944 26.6916 31.4133 26.5936 31.0259 26.593C30.732 26.593 30.4501 26.7097 30.2422 26.9176C30.0344 27.1254 29.9176 27.4073 29.9176 27.7012C29.9176 27.9951 30.0344 28.277 30.2422 28.4848C30.4501 28.6927 30.732 28.8094 31.0259 28.8094C31.0259 29.1033 31.1426 29.3852 31.3505 29.5931C31.5583 29.8009 31.8402 29.9176 32.1341 29.9176H32.1651C32.4579 29.9139 32.7376 29.7959 32.9446 29.5889C33.1517 29.3819 33.2696 29.1022 33.2734 28.8094C33.5619 28.8013 33.8358 28.681 34.037 28.4741ZM28.5301 33.331L24.3765 36.8385L32.1341 41.4188L35.4976 39.4351L28.9934 33.3398C28.9325 33.2784 28.8501 33.2431 28.7636 33.2414C28.6771 33.2398 28.5933 33.2719 28.5301 33.331ZM34.1477 35.134L36.2877 33.331C36.3514 33.272 36.4356 33.2402 36.5224 33.2425C36.6091 33.2448 36.6916 33.2809 36.7521 33.3431L39.8917 36.2777V36.844L37.4868 38.2626L34.1477 35.134Z" fill="url(#paint0_linear_15_1981)"/>
<defs>
<linearGradient id="paint0_linear_15_1981" x1="32.1341" y1="64.2682" x2="32.1341" y2="-3.06455e-05" gradientUnits="userSpaceOnUse">
<stop stop-color="#588AD6"/>
<stop offset="1" stop-color="#8D60EF"/>
</linearGradient>
</defs>
</svg>
