<svg width="774" height="463" viewBox="0 0 774 463" fill="none" xmlns="http://www.w3.org/2000/svg">
<rect x="101" y="144" width="175" height="175" rx="60" fill="#007994" fill-opacity="0.25"/>
<path d="M189 286C219.376 286 244 261.376 244 231C244 200.624 219.376 176 189 176C158.624 176 134 200.624 134 231C134 261.376 158.624 286 189 286Z" fill="url(#paint0_linear_14_1840)"/>
<path d="M185.699 233.557C185.703 240.713 185.717 247.87 185.74 255.026C187.914 255.03 190.087 255.03 192.26 255.026C192.283 247.87 192.297 240.713 192.302 233.557C190.1 233.558 187.9 233.558 185.699 233.557Z" fill="url(#paint1_linear_14_1840)"/>
<path d="M185.699 233.557C185.703 240.713 185.717 247.87 185.74 255.026C187.914 255.03 190.087 255.03 192.26 255.026C192.283 247.87 192.297 240.713 192.302 233.557C190.1 233.558 187.9 233.558 185.699 233.557Z" fill="url(#paint2_linear_14_1840)"/>
<path d="M185.726 250.071C184.822 250.07 184.091 250.807 184.095 251.719C184.102 253.37 184.11 255.021 184.118 256.672C186.83 256.681 189.543 256.683 192.254 256.677C192.262 254.475 192.268 252.273 192.274 250.071C190.091 250.075 187.909 250.075 185.726 250.071Z" fill="url(#paint3_linear_14_1840)"/>
<path d="M192.274 250.071C191.37 250.073 190.636 250.813 190.635 251.725C190.632 253.376 190.63 255.028 190.627 256.68C191.712 256.678 192.797 256.676 193.882 256.672C193.89 255.021 193.897 253.37 193.905 251.719C193.909 250.807 193.178 250.07 192.274 250.071Z" fill="url(#paint4_linear_14_1840)"/>
<path d="M218.507 256.385C215.253 256.45 211.998 256.505 208.744 256.548C208.699 258.74 208.649 260.932 208.593 263.124C211.823 263.071 215.053 263.004 218.282 262.924C220.064 262.879 221.573 261.378 221.643 259.577C221.714 257.777 220.306 256.35 218.507 256.385Z" fill="url(#paint5_linear_14_1840)"/>
<path d="M211.915 259.784C211.965 257.971 210.542 256.525 208.744 256.548C192.327 256.768 175.909 256.714 159.492 256.385C157.694 256.35 156.286 257.777 156.357 259.578C156.427 261.378 157.935 262.879 159.718 262.924C176.009 263.328 192.301 263.395 208.593 263.125C210.375 263.094 211.865 261.596 211.915 259.784Z" fill="url(#paint6_linear_14_1840)"/>
<path d="M184.11 255.021C181.937 255.014 179.764 255.003 177.59 254.987C176.69 254.981 175.97 255.713 175.982 256.623C176.012 258.821 176.045 261.018 176.081 263.216C176.097 264.126 176.831 264.873 177.72 264.882C183.092 264.936 188.463 264.951 193.834 264.928C190.633 261.64 187.386 258.334 184.11 255.021Z" fill="url(#paint7_linear_14_1840)"/>
<path d="M202.018 256.623C201.988 258.821 201.955 261.018 201.919 263.216C201.903 264.126 201.169 264.873 200.279 264.882C198.131 264.903 195.983 264.919 193.834 264.928C191.162 264.94 188.751 263.832 186.988 262.037C185.229 260.239 184.124 257.76 184.11 255.021C189.544 255.038 194.977 255.027 200.41 254.987C201.31 254.981 202.03 255.713 202.018 256.623Z" fill="url(#paint8_linear_14_1840)"/>
<path d="M234.13 226.972C215.233 226.956 196.336 226.95 177.439 226.954C177.437 232.451 177.454 237.947 177.489 243.444C177.489 243.537 219.563 243.405 223.533 243.252C229.881 243.16 235.184 238.02 235.231 231.806C235.243 230.076 234.845 228.439 234.13 226.972Z" fill="url(#paint9_linear_14_1840)"/>
<path d="M234.13 226.972C232.69 224.022 229.961 221.753 226.669 220.86C225.386 214.793 220.253 209.99 213.996 209.062C210.372 198.493 200.425 190.618 189 190.616C174.866 190.639 162.839 202.7 162.628 217.127C162.563 223.324 165.294 229.016 168.43 233.53C186.841 233.58 205.252 233.563 223.663 233.479C228.269 233.455 232.277 230.781 234.13 226.972Z" fill="url(#paint10_linear_14_1840)"/>
<path d="M143.87 226.972C143.155 228.44 142.757 230.076 142.769 231.806C142.816 238.02 148.12 243.16 154.467 243.252C162.141 243.348 169.815 243.412 177.489 243.444C183.282 243.47 188.075 239.16 188.881 233.558C186.68 231.356 184.476 229.153 182.274 226.952C169.473 226.954 156.672 226.961 143.87 226.972Z" fill="url(#paint11_linear_14_1840)"/>
<path d="M154.337 233.479C165.851 233.531 177.366 233.558 188.881 233.558C188.958 233.018 189 232.467 189 231.906C189 226.566 185.376 222.071 180.464 220.751C179.121 213.936 173.185 208.821 166.025 208.899C158.868 208.98 152.752 214.154 151.331 220.859C148.039 221.753 145.31 224.022 143.87 226.972C145.722 230.781 149.731 233.455 154.337 233.479Z" fill="url(#paint12_linear_14_1840)"/>
<rect y="175" width="60" height="60" rx="26" fill="#1069BE" fill-opacity="0.25"/>
<g clip-path="url(#clip0_14_1840)">
<path d="M9.35205 207.363L30.3505 199.318L51.3488 207.363L30.3505 215.414L9.35205 207.363Z" fill="url(#paint13_linear_14_1840)"/>
<g style="mix-blend-mode:multiply">
<path d="M11.7393 206.448C17.2369 208.554 30.3505 213.584 30.3505 213.584L48.9617 206.448C45.2113 205.008 30.3505 199.312 30.3505 199.312L11.7393 206.448Z" fill="#D1D3D4"/>
</g>
<path d="M51.3488 207.376L30.3504 244.458L9.34558 207.376L30.3504 215.414L51.3488 207.376Z" fill="url(#paint14_linear_14_1840)"/>
<path d="M51.6944 203.696L30.3504 211.875L9 203.696L30.3504 166L51.6944 203.696Z" fill="url(#paint15_linear_14_1840)"/>
<g style="mix-blend-mode:multiply">
<path d="M30.3503 215.414L51.3487 207.376L30.3503 244.458V215.414Z" fill="#DCCFEF"/>
</g>
<g style="mix-blend-mode:multiply">
<path d="M51.6943 203.696L30.3503 211.875V166L51.6943 203.696Z" fill="#DCCFEF"/>
</g>
</g>
<rect opacity="0.25" x="72" y="161" width="18" height="18" rx="9" fill="#05AD5C"/>
<rect opacity="0.25" x="36" y="264" width="100" height="100" rx="40" fill="#5227AE"/>
<path d="M107.031 293.584C97.2825 293.584 87.1795 284.547 87.0795 284.457C86.408 283.848 85.3845 283.848 84.7131 284.457C84.6124 284.548 74.536 293.584 64.7613 293.584C63.7886 293.584 63 294.372 63 295.345V316.437C63 333.524 75.7087 340.352 85.2681 344.002C85.4704 344.079 85.6833 344.117 85.8963 344.117C86.1093 344.117 86.3222 344.079 86.5245 344.002C99.9281 338.885 108.793 330.903 108.793 316.437V295.345C108.793 294.372 108.004 293.584 107.031 293.584Z" fill="url(#paint16_linear_14_1840)"/>
<path d="M85.8964 301.73C79.0983 301.73 73.5676 307.261 73.5676 314.059C73.5676 320.857 79.0983 326.387 85.8964 326.387C92.6945 326.387 98.2252 320.857 98.2252 314.059C98.2252 307.261 92.6945 301.73 85.8964 301.73ZM90.6642 313.543L85.3805 318.826C85.0367 319.17 84.5859 319.342 84.1351 319.342C83.6844 319.342 83.2336 319.171 82.8898 318.826L81.1286 317.065C80.4407 316.377 80.4407 315.262 81.1286 314.574C81.8163 313.887 82.9315 313.887 83.6193 314.574L84.1353 315.09L88.1737 311.052C88.8614 310.364 89.9766 310.364 90.6645 311.052C91.3522 311.74 91.3522 312.855 90.6642 313.543Z" fill="url(#paint17_linear_14_1840)"/>
<rect opacity="0.25" x="496" y="189" width="175" height="175" rx="60" fill="#007994"/>
<g clip-path="url(#clip1_14_1840)">
<path d="M628.293 257.575H537.316C532.721 257.575 529 253.854 529 249.259C529 244.664 532.721 240.943 537.316 240.943H620.656C624.871 240.943 628.293 244.365 628.293 248.58V257.575Z" fill="#2A0C6A"/>
<path d="M606.612 252.083C606.612 238.274 595.42 227.077 581.606 227.077C567.791 227.077 556.6 238.274 556.6 252.083C556.6 259.214 559.59 265.644 564.375 270.199H598.83C603.621 265.644 606.606 259.214 606.606 252.083H606.612Z" fill="url(#paint18_linear_14_1840)"/>
<path d="M602.948 252.083C602.948 240.299 593.395 230.746 581.611 230.746C569.827 230.746 560.269 240.299 560.269 252.083C560.269 259.726 564.289 266.432 570.333 270.199H592.884C598.922 266.432 602.948 259.726 602.948 252.083Z" fill="url(#paint19_linear_14_1840)"/>
<path d="M529 249.259V317.83C529 322.425 532.721 326.146 537.316 326.146H628.121C632.336 326.146 635.758 322.724 635.758 318.508V265.212C635.758 260.997 632.336 257.575 628.121 257.575L541.727 254.774C537.132 254.774 529 253.854 529 249.259Z" fill="url(#paint20_linear_14_1840)"/>
<path d="M536.891 254.095C533.29 254.095 530.225 251.824 529.029 248.638C529.012 248.845 529 249.052 529 249.259V249.259C529 253.854 532.721 257.575 537.316 257.575H628.293V254.095H536.891Z" fill="#250D5A"/>
<path d="M619.12 302.382H635.298C637.242 302.382 638.812 300.806 638.812 298.868V285.209C638.812 283.265 637.236 281.695 635.298 281.695H619.12C613.404 281.695 608.774 286.325 608.774 292.041C608.774 297.758 613.404 302.388 619.12 302.388V302.382Z" fill="#270965"/>
<path d="M620.57 299.794C624.769 299.794 628.173 296.39 628.173 292.191C628.173 287.992 624.769 284.588 620.57 284.588C616.371 284.588 612.967 287.992 612.967 292.191C612.967 296.39 616.371 299.794 620.57 299.794Z" fill="#210E4B"/>
<path d="M620.518 296.815C623.1 296.815 625.193 294.722 625.193 292.139C625.193 289.557 623.1 287.464 620.518 287.464C617.935 287.464 615.842 289.557 615.842 292.139C615.842 294.722 617.935 296.815 620.518 296.815Z" fill="url(#paint21_linear_14_1840)"/>
</g>
<rect x="752" y="285" width="22" height="22" rx="11" fill="#1069BE" fill-opacity="0.25"/>
<path d="M700.758 272.031H702.516V273.789C702.516 274.761 703.302 275.547 704.273 275.547C705.245 275.547 706.031 274.761 706.031 273.789V272.031H707.789C708.761 272.031 709.547 271.245 709.547 270.273C709.547 269.302 708.761 268.516 707.789 268.516H706.031V266.758C706.031 265.786 705.245 265 704.273 265C703.302 265 702.516 265.786 702.516 266.758V268.516H700.758C699.786 268.516 699 269.302 699 270.273C699 271.245 699.786 272.031 700.758 272.031ZM750.211 272.031H751.969V273.789C751.969 274.761 752.755 275.547 753.727 275.547C754.698 275.547 755.484 274.761 755.484 273.789V272.031H757.242C758.214 272.031 759 271.245 759 270.273C759 269.302 758.214 268.516 757.242 268.516H755.484V266.758C755.484 265.786 754.698 265 753.727 265C752.755 265 751.969 265.786 751.969 266.758V268.516H750.211C749.239 268.516 748.453 269.302 748.453 270.273C748.453 271.245 749.239 272.031 750.211 272.031ZM707.789 317.969H706.031V316.211C706.031 315.239 705.245 314.453 704.273 314.453C703.302 314.453 702.516 315.239 702.516 316.211V317.969H700.758C699.786 317.969 699 318.755 699 319.727C699 320.698 699.786 321.484 700.758 321.484H702.516V323.242C702.516 324.214 703.302 325 704.273 325C705.245 325 706.031 324.214 706.031 323.242V321.484H707.789C708.761 321.484 709.547 320.698 709.547 319.727C709.547 318.755 708.761 317.969 707.789 317.969ZM748.937 312.452C752.637 308.226 755.001 302.705 755.395 296.758L751.969 295L755.395 293.242C755.001 287.295 752.637 281.774 748.937 277.548L746.304 277.694L746.451 275.063C742.225 271.363 736.704 268.999 730.758 268.605L729 272.031L727.242 268.605C721.296 268.999 715.775 271.363 711.549 275.063L711.696 277.694L709.063 277.548C705.363 281.774 702.999 287.295 702.605 293.242L706.031 295L702.605 296.758C702.999 302.705 705.363 308.226 709.063 312.452L711.696 312.306L711.549 314.937C715.775 318.637 721.296 321.001 727.242 321.395L729 317.969L730.758 321.395C736.704 321.001 742.225 318.637 746.451 314.937L746.304 312.306L748.937 312.452ZM757.242 317.969H755.484V316.211C755.484 315.239 754.698 314.453 753.727 314.453C752.755 314.453 751.969 315.239 751.969 316.211V317.969H750.211C749.239 317.969 748.453 318.755 748.453 319.727C748.453 320.698 749.239 321.484 750.211 321.484H751.969V323.242C751.969 324.214 752.755 325 753.727 325C754.698 325 755.484 324.214 755.484 323.242V321.484H757.242C758.214 321.484 759 320.698 759 319.727C759 318.755 758.214 317.969 757.242 317.969Z" fill="url(#paint22_linear_14_1840)"/>
<path d="M707.789 293.242H702.605C702.566 293.826 702.516 294.407 702.516 295C702.516 295.593 702.566 296.174 702.605 296.758H707.789C708.761 296.758 709.547 295.972 709.547 295C709.547 294.028 708.761 293.242 707.789 293.242ZM715.212 281.21C715.898 280.523 715.898 279.411 715.212 278.724L711.549 275.063C710.666 275.836 709.837 276.665 709.063 277.548L712.726 281.21C713.413 281.897 714.525 281.897 715.212 281.21ZM729 275.547C729.972 275.547 730.758 274.761 730.758 273.789V268.605C730.174 268.566 729.593 268.516 729 268.516C728.407 268.516 727.826 268.566 727.242 268.605V273.789C727.242 274.761 728.028 275.547 729 275.547ZM745.274 281.21L748.937 277.548C748.163 276.665 747.334 275.836 746.451 275.063L742.788 278.724C742.102 279.411 742.102 280.523 742.788 281.21C743.475 281.897 744.587 281.897 745.274 281.21ZM729 279.062C720.276 279.062 713.062 286.276 713.062 295C713.062 303.724 720.276 310.938 729 310.938C737.724 310.938 744.938 303.724 744.938 295C744.938 286.276 737.724 279.062 729 279.062ZM736.914 294.085L734.232 296.699L734.867 300.392C734.981 301.051 734.709 301.717 734.167 302.11C733.644 302.492 732.928 302.566 732.316 302.244L729 300.502L725.683 302.244C725.093 302.556 724.375 302.505 723.833 302.11C723.291 301.717 723.019 301.051 723.133 300.392L723.768 296.699L721.086 294.085C720.606 293.618 720.434 292.919 720.64 292.284C720.846 291.647 721.399 291.184 722.058 291.088L725.766 290.549L727.424 287.191C728.015 285.989 729.985 285.989 730.576 287.191L732.234 290.549L735.942 291.088C736.601 291.184 737.154 291.647 737.36 292.284C737.566 292.919 737.394 293.618 736.914 294.085ZM742.788 308.79C742.102 309.477 742.102 310.589 742.788 311.276L746.451 314.937C747.334 314.164 748.163 313.335 748.937 312.452L745.274 308.79C744.587 308.103 743.475 308.103 742.788 308.79ZM712.726 308.79L709.063 312.452C709.837 313.335 710.666 314.164 711.549 314.937L715.212 311.276C715.898 310.589 715.898 309.477 715.212 308.79C714.525 308.103 713.413 308.103 712.726 308.79ZM755.395 293.242H750.211C749.239 293.242 748.453 294.028 748.453 295C748.453 295.972 749.239 296.758 750.211 296.758H755.395C755.434 296.174 755.484 295.593 755.484 295C755.484 294.407 755.434 293.826 755.395 293.242ZM729 314.453C728.028 314.453 727.242 315.239 727.242 316.211V321.395C727.826 321.434 728.407 321.484 729 321.484C729.593 321.484 730.174 321.434 730.758 321.395V316.211C730.758 315.239 729.972 314.453 729 314.453Z" fill="url(#paint23_linear_14_1840)"/>
<rect opacity="0.25" x="636" y="144" width="100" height="100" rx="40" fill="#8048D0"/>
<path d="M712.093 208.714C712.093 208.932 711.977 209.132 711.789 209.239L710.517 209.972L686 195.817L661.522 209.973L660.252 209.239C660.064 209.132 659.949 208.933 659.949 208.716L659.906 179.287C659.906 179.069 660.023 178.869 660.21 178.761L685.719 164.081C685.907 163.973 686.137 163.973 686.323 164.081L687.23 164.606L687.211 193.153L712.092 207.517L712.093 208.714Z" fill="#6D81D5"/>
<path d="M712.012 209.019C711.958 209.11 711.884 209.186 711.79 209.239L686.281 223.919C686.093 224.027 685.863 224.027 685.675 223.919L660.252 209.239C660.157 209.186 660.082 209.109 660.03 209.019L686 194L712.012 209.019Z" fill="#2944AE"/>
<path d="M712.012 209.019C711.958 209.11 711.884 209.186 711.79 209.239L686.281 223.919C686.093 224.027 685.863 224.027 685.675 223.919L660.252 209.239C660.157 209.186 660.082 209.109 660.03 209.019L686 194L712.012 209.019Z" fill="#2944AE"/>
<path d="M700.291 202.251V202.279L686.91 210.03C686.347 210.356 685.653 210.356 685.089 210.03L671.708 202.279V202.265L686 194L700.291 202.251Z" fill="#213993" fill-opacity="0.5"/>
<path d="M712.012 209.019C711.958 209.11 711.884 209.186 711.79 209.239L686.281 223.919C686.093 224.027 685.863 224.027 685.675 223.919L683.007 222.379L705.233 209.589C705.637 209.357 705.637 208.773 705.234 208.539L683.028 195.72V195.719L686 194L712.012 209.019Z" fill="#213993" fill-opacity="0.5"/>
<path d="M712.093 208.714C712.093 208.823 712.064 208.927 712.012 209.018L686 194L686.021 164C686.125 164 686.23 164.027 686.323 164.081L711.748 178.761C711.936 178.869 712.051 179.068 712.051 179.284L712.093 208.714Z" fill="#5169CD"/>
<path d="M686.606 193.723V207.406L686.303 207.582C686.115 207.691 685.884 207.691 685.696 207.582L674.433 201.057C674.245 200.949 674.13 200.749 674.13 200.534V187.199L686 194.074L686.606 193.723Z" fill="#2FA573"/>
<path d="M697.869 187.199V200.533C697.869 200.749 697.754 200.949 697.567 201.057L686.303 207.581C686.208 207.636 686.104 207.663 686 207.663V194.074L697.869 187.199Z" fill="#3CC454"/>
<path d="M674.436 186.667L685.692 180.148C685.882 180.038 686.117 180.038 686.308 180.148L697.563 186.668C697.972 186.904 697.972 187.494 697.563 187.731L686.308 194.25C686.117 194.361 685.882 194.361 685.692 194.25L674.436 187.731C674.028 187.494 674.028 186.904 674.436 186.667Z" fill="#58D66E"/>
<g filter="url(#filter0_d_14_1840)">
<mask id="mask0_14_1840" style="mask-type:alpha" maskUnits="userSpaceOnUse" x="246" y="112" width="276" height="276">
<path d="M384 388C460.215 388 522 326.237 522 250.05C522 173.862 460.215 112.099 384 112.099C307.785 112.099 246 173.862 246 250.05C246 326.237 307.785 388 384 388Z" fill="url(#paint24_linear_14_1840)"/>
</mask>
<g mask="url(#mask0_14_1840)">
<path d="M384 388.788C460.215 388.788 522 327.026 522 250.838C522 174.65 460.215 112.887 384 112.887C307.785 112.887 246 174.65 246 250.838C246 327.026 307.785 388.788 384 388.788Z" fill="url(#paint25_linear_14_1840)"/>
<g filter="url(#filter1_d_14_1840)">
<path d="M456.817 367.244C465.751 341.948 469.883 302.045 436.038 263.994C402.2 225.936 383.992 189.998 383.992 189.998L382.88 112.123C307.185 112.714 246 174.232 246 250.05C246 325.867 307.785 388 384 388C410.733 388 435.683 380.393 456.817 367.244Z" fill="url(#paint26_linear_14_1840)" shape-rendering="crispEdges"/>
</g>
<g filter="url(#filter2_d_14_1840)">
<path d="M343.641 293.587C291.848 225.51 339.517 170.819 339.517 170.819L360.706 114.07C295.585 125.13 246 181.8 246 250.05C246 326.238 307.785 388 384 388C406.466 388 427.671 382.632 446.415 373.109C428.452 334.665 395.434 361.663 343.633 293.587H343.641Z" fill="url(#paint27_linear_14_1840)"/>
</g>
<g filter="url(#filter3_d_14_1840)">
<path d="M469.536 37.4835C469.536 37.4835 422.061 32.2964 383.604 60.5477C345.148 32.2964 297.672 37.4835 297.672 37.4835C297.672 37.4835 281.674 86.5848 308.387 131.352C339.315 183.184 382.741 186.884 382.741 186.884C383.015 186.868 383.306 186.829 383.604 186.782C383.902 186.829 384.193 186.868 384.468 186.884C384.468 186.884 427.893 183.184 458.821 131.352C485.542 86.5848 469.536 37.4835 469.536 37.4835Z" fill="black"/>
</g>
</g>
<mask id="mask1_14_1840" style="mask-type:alpha" maskUnits="userSpaceOnUse" x="292" y="38" width="182" height="150">
<path d="M469.142 38.3742C469.142 38.3742 421.666 33.1871 383.21 61.4383C344.753 33.1871 297.277 38.3742 297.277 38.3742C297.277 38.3742 281.279 87.4755 307.992 132.242C338.921 184.074 382.346 187.775 382.346 187.775C382.621 187.759 382.911 187.72 383.21 187.673C383.508 187.72 383.798 187.759 384.073 187.775C384.073 187.775 427.499 184.074 458.427 132.242C485.148 87.4755 469.142 38.3742 469.142 38.3742Z" fill="white"/>
</mask>
<g mask="url(#mask1_14_1840)">
<path d="M408.439 87.8979C401.052 76.8196 392.386 68.1823 383.21 61.4383C421.666 33.1871 469.142 38.3742 469.142 38.3742C469.142 38.3742 485.14 87.4755 458.427 132.242C427.499 184.074 384.073 187.775 384.073 187.775C383.798 187.759 383.508 187.72 383.21 187.673C398.203 185.295 446.008 144.26 408.439 87.8901V87.8979Z" fill="url(#paint28_linear_14_1840)"/>
<path d="M357.98 87.8979C365.367 76.8196 374.033 68.1823 383.21 61.4383C344.753 33.1871 297.277 38.3742 297.277 38.3742C297.277 38.3742 281.279 87.4755 307.992 132.242C338.921 184.074 382.346 187.775 382.346 187.775C382.621 187.759 382.911 187.72 383.21 187.673C368.216 185.295 320.411 144.26 357.98 87.8901V87.8979Z" fill="url(#paint29_linear_14_1840)"/>
<g filter="url(#filter4_d_14_1840)">
<path d="M408.439 87.8979C401.052 76.8196 392.386 68.1823 383.209 61.4383C374.033 68.1823 365.359 76.8196 357.98 87.8979C320.411 144.267 368.216 185.302 383.209 187.681C398.203 185.302 446.008 144.267 408.439 87.8979Z" fill="url(#paint30_linear_14_1840)"/>
</g>
</g>
</g>
<defs>
<filter id="filter0_d_14_1840" x="190.043" y="0.695091" width="387.915" height="461.915" filterUnits="userSpaceOnUse" color-interpolation-filters="sRGB">
<feFlood flood-opacity="0" result="BackgroundImageFix"/>
<feColorMatrix in="SourceAlpha" type="matrix" values="0 0 0 0 0 0 0 0 0 0 0 0 0 0 0 0 0 0 127 0" result="hardAlpha"/>
<feOffset dy="18.6525"/>
<feGaussianBlur stdDeviation="27.9787"/>
<feComposite in2="hardAlpha" operator="out"/>
<feColorMatrix type="matrix" values="0 0 0 0 0 0 0 0 0 0 0 0 0 0 0 0 0 0 0.15 0"/>
<feBlend mode="normal" in2="BackgroundImageFix" result="effect1_dropShadow_14_1840"/>
<feBlend mode="normal" in="SourceGraphic" in2="effect1_dropShadow_14_1840" result="shape"/>
</filter>
<filter id="filter1_d_14_1840" x="238.113" y="88.4609" width="248.661" height="307.427" filterUnits="userSpaceOnUse" color-interpolation-filters="sRGB">
<feFlood flood-opacity="0" result="BackgroundImageFix"/>
<feColorMatrix in="SourceAlpha" type="matrix" values="0 0 0 0 0 0 0 0 0 0 0 0 0 0 0 0 0 0 127 0" result="hardAlpha"/>
<feOffset dx="7.88732" dy="-7.88732"/>
<feGaussianBlur stdDeviation="7.88732"/>
<feComposite in2="hardAlpha" operator="out"/>
<feColorMatrix type="matrix" values="0 0 0 0 0 0 0 0 0 0 0 0 0 0 0 0 0 0 0.15 0"/>
<feBlend mode="normal" in2="BackgroundImageFix" result="effect1_dropShadow_14_1840"/>
<feBlend mode="normal" in="SourceGraphic" in2="effect1_dropShadow_14_1840" result="shape"/>
</filter>
<filter id="filter2_d_14_1840" x="238.113" y="106.183" width="231.965" height="305.479" filterUnits="userSpaceOnUse" color-interpolation-filters="sRGB">
<feFlood flood-opacity="0" result="BackgroundImageFix"/>
<feColorMatrix in="SourceAlpha" type="matrix" values="0 0 0 0 0 0 0 0 0 0 0 0 0 0 0 0 0 0 127 0" result="hardAlpha"/>
<feOffset dx="7.88732" dy="7.88732"/>
<feGaussianBlur stdDeviation="7.88732"/>
<feComposite in2="hardAlpha" operator="out"/>
<feColorMatrix type="matrix" values="0 0 0 0 0 0 0 0 0 0 0 0 0 0 0 0 0 0 0.25 0"/>
<feBlend mode="normal" in2="BackgroundImageFix" result="effect1_dropShadow_14_1840"/>
<feBlend mode="normal" in="SourceGraphic" in2="effect1_dropShadow_14_1840" result="shape"/>
</filter>
<filter id="filter3_d_14_1840" x="277.145" y="29.222" width="212.921" height="181.324" filterUnits="userSpaceOnUse" color-interpolation-filters="sRGB">
<feFlood flood-opacity="0" result="BackgroundImageFix"/>
<feColorMatrix in="SourceAlpha" type="matrix" values="0 0 0 0 0 0 0 0 0 0 0 0 0 0 0 0 0 0 127 0" result="hardAlpha"/>
<feOffset dy="7.88732"/>
<feGaussianBlur stdDeviation="7.88732"/>
<feComposite in2="hardAlpha" operator="out"/>
<feColorMatrix type="matrix" values="0 0 0 0 0 0 0 0 0 0 0 0 0 0 0 0 0 0 0.25 0"/>
<feBlend mode="normal" in2="BackgroundImageFix" result="effect1_dropShadow_14_1840"/>
<feBlend mode="normal" in="SourceGraphic" in2="effect1_dropShadow_14_1840" result="shape"/>
</filter>
<filter id="filter4_d_14_1840" x="328.119" y="45.6636" width="110.18" height="157.792" filterUnits="userSpaceOnUse" color-interpolation-filters="sRGB">
<feFlood flood-opacity="0" result="BackgroundImageFix"/>
<feColorMatrix in="SourceAlpha" type="matrix" values="0 0 0 0 0 0 0 0 0 0 0 0 0 0 0 0 0 0 127 0" result="hardAlpha"/>
<feOffset/>
<feGaussianBlur stdDeviation="7.88732"/>
<feComposite in2="hardAlpha" operator="out"/>
<feColorMatrix type="matrix" values="0 0 0 0 0 0 0 0 0 0 0 0 0 0 0 0 0 0 0.1 0"/>
<feBlend mode="normal" in2="BackgroundImageFix" result="effect1_dropShadow_14_1840"/>
<feBlend mode="normal" in="SourceGraphic" in2="effect1_dropShadow_14_1840" result="shape"/>
</filter>
<linearGradient id="paint0_linear_14_1840" x1="249.5" y1="279.583" x2="134" y2="160.417" gradientUnits="userSpaceOnUse">
<stop stop-color="#0056E0"/>
<stop offset="1" stop-color="#85FFE0"/>
</linearGradient>
<linearGradient id="paint1_linear_14_1840" x1="154.631" y1="278.639" x2="237.153" y2="196.118" gradientUnits="userSpaceOnUse">
<stop stop-color="#170794"/>
<stop offset="1" stop-color="#3CA1FF"/>
</linearGradient>
<linearGradient id="paint2_linear_14_1840" x1="189" y1="258.46" x2="189" y2="236.988" gradientUnits="userSpaceOnUse">
<stop stop-color="#560DFF" stop-opacity="0"/>
<stop offset="0.2067" stop-color="#540DFB" stop-opacity="0.165"/>
<stop offset="0.3974" stop-color="#4D0CF0" stop-opacity="0.318"/>
<stop offset="0.5818" stop-color="#420BDD" stop-opacity="0.465"/>
<stop offset="0.7623" stop-color="#330AC3" stop-opacity="0.61"/>
<stop offset="0.9384" stop-color="#1F08A2" stop-opacity="0.751"/>
<stop offset="1" stop-color="#170794" stop-opacity="0.8"/>
</linearGradient>
<linearGradient id="paint3_linear_14_1840" x1="157.144" y1="284.883" x2="229.211" y2="212.816" gradientUnits="userSpaceOnUse">
<stop stop-color="#389FFF"/>
<stop offset="0.1209" stop-color="#45AFFA"/>
<stop offset="0.5726" stop-color="#73E9E7"/>
<stop offset="0.79" stop-color="#85FFE0"/>
<stop offset="0.881" stop-color="#9DFFE6"/>
<stop offset="1" stop-color="#C2FFF0"/>
</linearGradient>
<linearGradient id="paint4_linear_14_1840" x1="151.06" y1="295.054" x2="223.552" y2="222.562" gradientUnits="userSpaceOnUse">
<stop stop-color="#389FFF"/>
<stop offset="0.1209" stop-color="#45AFFA"/>
<stop offset="0.5726" stop-color="#73E9E7"/>
<stop offset="0.79" stop-color="#85FFE0"/>
<stop offset="0.881" stop-color="#9DFFE6"/>
<stop offset="1" stop-color="#C2FFF0"/>
</linearGradient>
<linearGradient id="paint5_linear_14_1840" x1="150.077" y1="323.826" x2="266.19" y2="207.713" gradientUnits="userSpaceOnUse">
<stop stop-color="#170794"/>
<stop offset="1" stop-color="#3CA1FF"/>
</linearGradient>
<linearGradient id="paint6_linear_14_1840" x1="147.191" y1="296.58" x2="272.361" y2="171.41" gradientUnits="userSpaceOnUse">
<stop stop-color="#170794"/>
<stop offset="1" stop-color="#3CA1FF"/>
</linearGradient>
<linearGradient id="paint7_linear_14_1840" x1="152.342" y1="292.992" x2="215.308" y2="230.026" gradientUnits="userSpaceOnUse">
<stop stop-color="#389FFF"/>
<stop offset="0.1209" stop-color="#45AFFA"/>
<stop offset="0.5726" stop-color="#73E9E7"/>
<stop offset="0.79" stop-color="#85FFE0"/>
<stop offset="0.881" stop-color="#9DFFE6"/>
<stop offset="1" stop-color="#C2FFF0"/>
</linearGradient>
<linearGradient id="paint8_linear_14_1840" x1="135.766" y1="316.707" x2="219.385" y2="233.088" gradientUnits="userSpaceOnUse">
<stop stop-color="#389FFF"/>
<stop offset="0.1209" stop-color="#45AFFA"/>
<stop offset="0.5726" stop-color="#73E9E7"/>
<stop offset="0.79" stop-color="#85FFE0"/>
<stop offset="0.881" stop-color="#9DFFE6"/>
<stop offset="1" stop-color="#C2FFF0"/>
</linearGradient>
<linearGradient id="paint9_linear_14_1840" x1="164.315" y1="273.667" x2="270.401" y2="167.582" gradientUnits="userSpaceOnUse">
<stop stop-color="#43DCC7"/>
<stop offset="0.3" stop-color="#85FFE0"/>
<stop offset="0.4638" stop-color="#9DFFE6"/>
<stop offset="0.8076" stop-color="#DAFFF6"/>
<stop offset="1" stop-color="white"/>
</linearGradient>
<linearGradient id="paint10_linear_14_1840" x1="-65.4262" y1="480.945" x2="317.794" y2="97.7248" gradientUnits="userSpaceOnUse">
<stop stop-color="#43DCC7"/>
<stop offset="0.3" stop-color="#85FFE0"/>
<stop offset="0.4638" stop-color="#9DFFE6"/>
<stop offset="0.8076" stop-color="#DAFFF6"/>
<stop offset="1" stop-color="white"/>
</linearGradient>
<linearGradient id="paint11_linear_14_1840" x1="68.8928" y1="329.379" x2="210.826" y2="187.446" gradientUnits="userSpaceOnUse">
<stop stop-color="#43DCC7"/>
<stop offset="0.3" stop-color="#85FFE0"/>
<stop offset="0.4638" stop-color="#9DFFE6"/>
<stop offset="0.8076" stop-color="#DAFFF6"/>
<stop offset="1" stop-color="white"/>
</linearGradient>
<linearGradient id="paint12_linear_14_1840" x1="-194.034" y1="589.664" x2="202.581" y2="193.049" gradientUnits="userSpaceOnUse">
<stop stop-color="#43DCC7"/>
<stop offset="0.3" stop-color="#85FFE0"/>
<stop offset="0.4638" stop-color="#9DFFE6"/>
<stop offset="0.8076" stop-color="#DAFFF6"/>
<stop offset="1" stop-color="white"/>
</linearGradient>
<linearGradient id="paint13_linear_14_1840" x1="3.29765" y1="199.299" x2="43.496" y2="211.286" gradientUnits="userSpaceOnUse">
<stop stop-color="#EFCF64"/>
<stop offset="1" stop-color="#F9784C"/>
</linearGradient>
<linearGradient id="paint14_linear_14_1840" x1="30.3504" y1="172.106" x2="30.3504" y2="236.432" gradientUnits="userSpaceOnUse">
<stop stop-color="#FFE953"/>
<stop offset="1" stop-color="#FF8B48"/>
</linearGradient>
<linearGradient id="paint15_linear_14_1840" x1="30.3504" y1="172.106" x2="30.3504" y2="236.432" gradientUnits="userSpaceOnUse">
<stop stop-color="#FFE953"/>
<stop offset="1" stop-color="#FF8B48"/>
</linearGradient>
<linearGradient id="paint16_linear_14_1840" x1="85.8963" y1="344.117" x2="85.8963" y2="284" gradientUnits="userSpaceOnUse">
<stop stop-color="#00B59C"/>
<stop offset="1" stop-color="#58D66C"/>
</linearGradient>
<linearGradient id="paint17_linear_14_1840" x1="85.8964" y1="326.387" x2="85.8964" y2="301.73" gradientUnits="userSpaceOnUse">
<stop stop-color="#C3FFE8"/>
<stop offset="0.9973" stop-color="#F0FFF4"/>
</linearGradient>
<linearGradient id="paint18_linear_14_1840" x1="563.927" y1="234.398" x2="599.285" y2="269.756" gradientUnits="userSpaceOnUse">
<stop stop-color="#FFD54F"/>
<stop offset="1" stop-color="#FF9100"/>
</linearGradient>
<linearGradient id="paint19_linear_14_1840" x1="566.52" y1="236.992" x2="596.697" y2="267.168" gradientUnits="userSpaceOnUse">
<stop stop-color="#FF9100"/>
<stop offset="1" stop-color="#FFD54F"/>
</linearGradient>
<linearGradient id="paint20_linear_14_1840" x1="652" y1="227" x2="524" y2="326" gradientUnits="userSpaceOnUse">
<stop stop-color="#B08AFF"/>
<stop offset="1" stop-color="#4C259F"/>
</linearGradient>
<linearGradient id="paint21_linear_14_1840" x1="615.842" y1="292.14" x2="625.194" y2="292.14" gradientUnits="userSpaceOnUse">
<stop stop-color="#B08AFF"/>
<stop offset="1" stop-color="#4C259F"/>
</linearGradient>
<linearGradient id="paint22_linear_14_1840" x1="676" y1="378" x2="797" y2="247" gradientUnits="userSpaceOnUse">
<stop stop-color="#FD5900"/>
<stop offset="1" stop-color="#FFDE00"/>
</linearGradient>
<linearGradient id="paint23_linear_14_1840" x1="729" y1="321.484" x2="729" y2="268.516" gradientUnits="userSpaceOnUse">
<stop stop-color="#FFE59A"/>
<stop offset="1" stop-color="#FFFFD5"/>
</linearGradient>
<linearGradient id="paint24_linear_14_1840" x1="361.999" y1="187.806" x2="417.014" y2="343.569" gradientUnits="userSpaceOnUse">
<stop offset="0.03" stop-color="#3A138E"/>
<stop offset="1" stop-color="#210D4D"/>
</linearGradient>
<linearGradient id="paint25_linear_14_1840" x1="361.999" y1="188.595" x2="417.014" y2="344.357" gradientUnits="userSpaceOnUse">
<stop offset="0.03" stop-color="#3A138E"/>
<stop offset="1" stop-color="#210D4D"/>
</linearGradient>
<linearGradient id="paint26_linear_14_1840" x1="463.251" y1="359.519" x2="290.626" y2="158.839" gradientUnits="userSpaceOnUse">
<stop stop-color="#240762"/>
<stop offset="0.426013" stop-color="#47209B" stop-opacity="0.58"/>
<stop offset="1" stop-color="#2C0976"/>
</linearGradient>
<linearGradient id="paint27_linear_14_1840" x1="246" y1="251.035" x2="442.315" y2="373.772" gradientUnits="userSpaceOnUse">
<stop offset="0.03" stop-color="#5227AE"/>
<stop offset="1" stop-color="#240762"/>
</linearGradient>
<linearGradient id="paint28_linear_14_1840" x1="469.244" y1="38.3898" x2="385.562" y2="132.161" gradientUnits="userSpaceOnUse">
<stop offset="0.03" stop-color="#04AC5C"/>
<stop offset="1" stop-color="#005226"/>
</linearGradient>
<linearGradient id="paint29_linear_14_1840" x1="296.547" y1="38.3898" x2="382.614" y2="122.782" gradientUnits="userSpaceOnUse">
<stop offset="0.03" stop-color="#04AC5C"/>
<stop offset="1" stop-color="#005226"/>
</linearGradient>
<linearGradient id="paint30_linear_14_1840" x1="383.209" y1="61.4305" x2="383.209" y2="184.309" gradientUnits="userSpaceOnUse">
<stop stop-color="#05AD5C"/>
<stop offset="1" stop-color="#007994"/>
</linearGradient>
<clipPath id="clip0_14_1840">
<rect width="42.6944" height="78.4576" fill="white" transform="translate(9 166)"/>
</clipPath>
<clipPath id="clip1_14_1840">
<rect width="110" height="99.8013" fill="white" transform="translate(529 227)"/>
</clipPath>
</defs>
</svg>
