<svg width="78" height="78" viewBox="0 0 78 78" fill="none" xmlns="http://www.w3.org/2000/svg">
<path fill-rule="evenodd" clip-rule="evenodd" d="M39.8355 0.728263L40.8381 2.76026L43.0808 3.0856C43.3226 3.12078 43.5496 3.22289 43.7364 3.38039C43.9231 3.53788 44.0621 3.74449 44.1376 3.97684C44.213 4.20919 44.222 4.45802 44.1634 4.69519C44.1048 4.93236 43.9811 5.14842 43.8061 5.31893L42.1835 6.90026L42.5661 9.13226C42.6085 9.37373 42.5821 9.62224 42.4901 9.84945C42.398 10.0767 42.2439 10.2734 42.0454 10.4173C41.8469 10.5612 41.612 10.6464 41.3674 10.6631C41.1228 10.6799 40.8784 10.6277 40.6621 10.5123L38.6621 9.4576L36.6621 10.5123C36.4458 10.6277 36.2015 10.6799 35.9569 10.6631C35.7123 10.6464 35.4774 10.5612 35.2789 10.4173C35.0804 10.2734 34.9263 10.0767 34.8342 9.84945C34.7421 9.62224 34.7158 9.37373 34.7581 9.13226L35.1408 6.90026L33.5181 5.31893C33.3432 5.14842 33.2194 4.93236 33.1609 4.69519C33.1023 4.45802 33.1112 4.20919 33.1867 3.97684C33.2622 3.74449 33.4011 3.53788 33.5879 3.38039C33.7746 3.22289 34.0017 3.12078 34.2435 3.0856L36.4861 2.76026L37.4888 0.728263C37.5971 0.509599 37.7643 0.325546 37.9716 0.196866C38.179 0.0681859 38.4181 0 38.6621 0C38.9061 0 39.1453 0.0681859 39.3526 0.196866C39.5599 0.325546 39.7272 0.509599 39.8355 0.728263ZM60.1794 36.359L56.806 33.8004L58.446 29.907C58.6206 29.495 58.6973 29.0481 58.6699 28.6014C58.6426 28.1547 58.512 27.7205 58.2884 27.3328C58.0649 26.9452 57.7545 26.6146 57.3816 26.3672C57.0087 26.1198 56.5835 25.9623 56.1394 25.907L51.9407 25.3884L51.4207 21.1884C51.3664 20.7453 51.2099 20.3208 50.9637 19.9484C50.7175 19.576 50.3883 19.2658 50.0018 19.0422C49.6154 18.8186 49.1824 18.6878 48.7368 18.6599C48.2912 18.6321 47.8453 18.708 47.434 18.8817L43.5274 20.5217L40.9687 17.1484C40.6994 16.7914 40.3509 16.5017 39.9506 16.3023C39.5504 16.1028 39.1093 15.999 38.662 15.999C38.2148 15.999 37.7737 16.1028 37.3735 16.3023C36.9732 16.5017 36.6247 16.7914 36.3554 17.1484L33.7967 20.5217L29.9034 18.8817C29.4913 18.7071 29.0444 18.6305 28.5977 18.6578C28.1511 18.6852 27.7168 18.8158 27.3292 19.0393C26.9415 19.2629 26.611 19.5733 26.3636 19.9462C26.1162 20.3191 25.9587 20.7443 25.9034 21.1884L25.3834 25.3884L21.1847 25.907C20.7416 25.9614 20.3171 26.1178 19.9447 26.364C19.5723 26.6102 19.2621 26.9395 19.0385 27.3259C18.815 27.7123 18.6841 28.1454 18.6562 28.5909C18.6284 29.0365 18.7043 29.4825 18.878 29.8937L20.518 33.8004L17.1447 36.359C16.7877 36.6284 16.4981 36.9769 16.2986 37.3771C16.0992 37.7774 15.9954 38.2185 15.9954 38.6657C15.9954 39.1129 16.0992 39.554 16.2986 39.9543C16.4981 40.3546 16.7877 40.7031 17.1447 40.9724L20.518 43.531L18.878 47.4244C18.7035 47.8364 18.6268 48.2833 18.6542 48.73C18.6815 49.1767 18.8121 49.6109 19.0356 49.9986C19.2592 50.3862 19.5696 50.7168 19.9425 50.9642C20.3154 51.2116 20.7406 51.3691 21.1847 51.4244L25.3834 51.943L25.9034 56.143C25.9577 56.5862 26.1142 57.0106 26.3604 57.383C26.6066 57.7554 26.9358 58.0656 27.3223 58.2892C27.7087 58.5128 28.1417 58.6437 28.5873 58.6715C29.0328 58.6994 29.4788 58.6234 29.89 58.4497L33.7967 56.8097L36.3554 60.183C36.6247 60.5401 36.9732 60.8297 37.3735 61.0291C37.7737 61.2286 38.2148 61.3324 38.662 61.3324C39.1093 61.3324 39.5504 61.2286 39.9506 61.0291C40.3509 60.8297 40.6994 60.5401 40.9687 60.183L43.5274 56.8097L47.4207 58.4497C47.8328 58.6243 48.2797 58.7009 48.7263 58.6736C49.173 58.6462 49.6073 58.5157 49.9949 58.2921C50.3826 58.0686 50.7131 57.7581 50.9605 57.3852C51.2079 57.0123 51.3654 56.5871 51.4207 56.143L51.9407 51.943L56.1394 51.4244C56.5825 51.37 57.007 51.2136 57.3794 50.9674C57.7518 50.7212 58.062 50.3919 58.2856 50.0055C58.5091 49.6191 58.64 49.1861 58.6678 48.7405C58.6957 48.2949 58.6198 47.849 58.446 47.4377L56.806 43.531L60.1794 40.9724C60.5364 40.7031 60.826 40.3546 61.0255 39.9543C61.2249 39.554 61.3287 39.1129 61.3287 38.6657C61.3287 38.2185 61.2249 37.7774 61.0255 37.3771C60.826 36.9769 60.5364 36.6284 60.1794 36.359ZM47.7287 31.4657L35.7287 47.4657C35.6144 47.6191 35.4685 47.7462 35.3008 47.8382C35.1331 47.9302 34.9475 47.9851 34.7567 47.999H34.662C34.3085 47.999 33.9694 47.8584 33.7194 47.6084L29.7194 43.6084C29.4765 43.3569 29.3421 43.0201 29.3451 42.6705C29.3482 42.3209 29.4884 41.9865 29.7356 41.7393C29.9828 41.4921 30.3172 41.3518 30.6668 41.3488C31.0164 41.3458 31.3532 41.4802 31.6047 41.723L34.518 44.6364L45.5954 29.8657C45.8076 29.5828 46.1234 29.3958 46.4735 29.3458C46.8236 29.2958 47.1791 29.3869 47.462 29.599C47.7449 29.8112 47.932 30.1271 47.982 30.4771C48.032 30.8272 47.9409 31.1828 47.7287 31.4657ZM7.71279 36.0936L6.71012 34.0616C6.6017 33.8433 6.43448 33.6596 6.2273 33.5312C6.02012 33.4028 5.78121 33.3347 5.53746 33.3347C5.2937 33.3347 5.05479 33.4028 4.84761 33.5312C4.64043 33.6596 4.47322 33.8433 4.36479 34.0616L3.36212 36.0936L1.12079 36.419C0.879038 36.4542 0.651951 36.5563 0.465202 36.7138C0.278454 36.8713 0.139493 37.0779 0.0640309 37.3102C-0.0114308 37.5426 -0.0203834 37.7914 0.0381854 38.0286C0.0967542 38.2657 0.220508 38.4818 0.395455 38.6523L2.01412 40.2336L1.63146 42.4656C1.58817 42.7084 1.61433 42.9585 1.70693 43.1871C1.79954 43.4157 1.95481 43.6134 2.15488 43.7577C2.35496 43.9019 2.59169 43.9866 2.83782 44.0022C3.08395 44.0177 3.32948 43.9635 3.54612 43.8456L5.54612 42.791L7.54612 43.8456C7.76236 43.9594 8.0061 44.0103 8.24978 43.9928C8.49347 43.9752 8.72738 43.8898 8.92505 43.7462C9.12273 43.6026 9.2763 43.4066 9.36838 43.1803C9.46046 42.954 9.48739 42.7064 9.44612 42.4656L9.06212 40.2336L10.6795 38.6523C10.8544 38.4818 10.9782 38.2657 11.0367 38.0286C11.0953 37.7914 11.0863 37.5426 11.0109 37.3102C10.9354 37.0779 10.7965 36.8713 10.6097 36.7138C10.423 36.5563 10.1959 36.4542 9.95412 36.419L7.71279 36.0936ZM72.9621 34.0616L73.9647 36.0936L76.2061 36.419C76.4476 36.4546 76.6744 36.557 76.8608 36.7146C77.0472 36.8723 77.1858 37.0789 77.2609 37.3112C77.3361 37.5435 77.3448 37.7922 77.2861 38.0292C77.2274 38.2661 77.1036 38.482 76.9287 38.6523L75.3074 40.2336L75.6901 42.4656C75.7313 42.7064 75.7044 42.954 75.6123 43.1803C75.5202 43.4066 75.3667 43.6026 75.169 43.7462C74.9713 43.8898 74.7374 43.9752 74.4937 43.9928C74.25 44.0103 74.0063 43.9594 73.7901 43.8456L71.7901 42.791L69.7901 43.8456C69.5738 43.9594 69.3301 44.0103 69.0864 43.9928C68.8427 43.9752 68.6088 43.8898 68.4111 43.7462C68.2134 43.6026 68.0599 43.4066 67.9678 43.1803C67.8757 42.954 67.8488 42.7064 67.8901 42.4656L68.2741 40.2336L66.6447 38.6523C66.4698 38.4818 66.346 38.2657 66.2875 38.0286C66.2289 37.7914 66.2378 37.5426 66.3133 37.3102C66.3888 37.0779 66.5277 36.8713 66.7145 36.7138C66.9012 36.5563 67.1283 36.4542 67.3701 36.419L69.6114 36.0936L70.6141 34.0616C70.7222 33.8426 70.8895 33.6582 71.0969 33.5293C71.3044 33.4004 71.5438 33.332 71.7881 33.332C72.0323 33.332 72.2717 33.4004 72.4792 33.5293C72.6866 33.6582 72.8539 33.8426 72.9621 34.0616ZM14.8075 11.7376L12.6622 11.0096C12.4315 10.9328 12.184 10.9217 11.9474 10.9776C11.7108 11.0334 11.4945 11.1541 11.3226 11.326C11.1507 11.4979 11.03 11.7143 10.9741 11.9509C10.9182 12.1875 10.9293 12.4349 11.0062 12.6656L11.7288 14.8149L10.3782 16.6283C10.2321 16.8241 10.1438 17.0569 10.1231 17.3003C10.1024 17.5438 10.1503 17.7881 10.2613 18.0058C10.3723 18.2234 10.5419 18.4057 10.7511 18.532C10.9602 18.6582 11.2005 18.7234 11.4448 18.7203L13.7115 18.6909L15.0195 20.5403C15.1603 20.74 15.3542 20.8963 15.5793 20.9915C15.8044 21.0867 16.0516 21.1169 16.293 21.0787C16.5344 21.0406 16.7602 20.9355 16.9449 20.7755C17.1297 20.6156 17.2659 20.407 17.3382 20.1736L18.0048 18.0096L20.1688 17.3429C20.4023 17.2707 20.6108 17.1344 20.7708 16.9497C20.9308 16.765 21.0358 16.5391 21.074 16.2977C21.1121 16.0564 21.0819 15.8091 20.9867 15.584C20.8916 15.359 20.7353 15.165 20.5355 15.0243L18.6862 13.7163L18.7155 11.4496C18.7187 11.2053 18.6535 10.965 18.5272 10.7558C18.4009 10.5467 18.2187 10.377 18.001 10.266C17.7834 10.1551 17.539 10.1072 17.2956 10.1279C17.0521 10.1485 16.8193 10.2369 16.6235 10.3829L14.8075 11.7376ZM11.0061 64.6656L11.7287 62.5163L10.3794 60.7003C10.2333 60.5044 10.145 60.2716 10.1243 60.0282C10.1037 59.7848 10.1515 59.5404 10.2625 59.3228C10.3735 59.1051 10.5431 58.9228 10.7523 58.7966C10.9615 58.6703 11.2018 58.6051 11.4461 58.6083L13.7127 58.6376L15.0207 56.7883C15.1615 56.5885 15.3554 56.4322 15.5805 56.337C15.8056 56.2419 16.0528 56.2116 16.2942 56.2498C16.5356 56.288 16.7614 56.393 16.9462 56.553C17.1309 56.713 17.2671 56.9215 17.3394 57.1549L18.0061 59.319L20.1701 59.9856C20.4035 60.0579 20.612 60.1941 20.772 60.3788C20.932 60.5636 21.037 60.7894 21.0752 61.0308C21.1134 61.2722 21.0831 61.5194 20.988 61.7445C20.8928 61.9696 20.7365 62.1635 20.5367 62.3043L18.6874 63.6123L18.7167 65.879C18.7199 66.1232 18.6547 66.3635 18.5284 66.5727C18.4022 66.7819 18.2199 66.9515 18.0022 67.0625C17.7846 67.1735 17.5402 67.2213 17.2968 67.2007C17.0534 67.18 16.8206 67.0917 16.6247 66.9456L14.8114 65.599L12.6661 66.327C12.4346 66.4054 12.1858 66.4175 11.9479 66.3619C11.7099 66.3063 11.4923 66.1852 11.3195 66.0124C11.1468 65.8395 11.0259 65.6218 10.9705 65.3838C10.9151 65.1458 10.9274 64.897 11.0061 64.6656ZM36.4861 74.571L37.4888 76.603C37.5976 76.8203 37.7648 77.0029 37.9715 77.1306C38.1783 77.2583 38.4165 77.3259 38.6595 77.3259C38.9025 77.3259 39.1407 77.2583 39.3474 77.1306C39.5542 77.0029 39.7213 76.8203 39.8301 76.603L40.8328 74.571L43.0755 74.2457C43.3172 74.2105 43.5443 74.1084 43.7311 73.9509C43.9178 73.7934 44.0568 73.5868 44.1322 73.3544C44.2077 73.1221 44.2166 72.8732 44.1581 72.6361C44.0995 72.3989 43.9757 72.1828 43.8008 72.0123L42.1781 70.431L42.5608 68.199C42.6024 67.9582 42.5758 67.7106 42.4839 67.4843C42.392 67.2579 42.2386 67.0617 42.0409 66.9181C41.8433 66.7745 41.6094 66.689 41.3657 66.6715C41.122 66.654 40.8783 66.7051 40.6621 66.819L38.6621 67.8737L36.6621 66.819C36.4458 66.7036 36.2015 66.6513 35.9569 66.6681C35.7123 66.6849 35.4774 66.7701 35.2789 66.914C35.0804 67.0578 34.9263 67.2546 34.8342 67.4818C34.7421 67.709 34.7158 67.9575 34.7581 68.199L35.1408 70.431L33.5181 72.0123C33.3432 72.1828 33.2194 72.3989 33.1609 72.6361C33.1023 72.8732 33.1112 73.1221 33.1867 73.3544C33.2622 73.5868 33.4011 73.7934 33.5879 73.9509C33.7746 74.1084 34.0017 74.2105 34.2435 74.2457L36.4861 74.571ZM64.6621 66.3217L62.5127 65.599L60.6967 66.9537C60.5009 67.0997 60.2681 67.1881 60.0247 67.2087C59.7812 67.2294 59.5369 67.1815 59.3192 67.0706C59.1016 66.9596 58.9193 66.7899 58.793 66.5808C58.6668 66.3716 58.6016 66.1313 58.6047 65.887L58.6341 63.6203L56.7847 62.3123C56.585 62.1716 56.4287 61.9776 56.3335 61.7526C56.2383 61.5275 56.2081 61.2802 56.2463 61.0389C56.2845 60.7975 56.3895 60.5716 56.5495 60.3869C56.7094 60.2022 56.918 60.0659 57.1514 59.9937L59.3154 59.327L59.9821 57.163C60.0543 56.9296 60.1906 56.721 60.3753 56.5611C60.56 56.4011 60.7859 56.296 61.0273 56.2579C61.2686 56.2197 61.5159 56.2499 61.741 56.3451C61.9661 56.4403 62.16 56.5966 62.3007 56.7963L63.6087 58.6457L65.8754 58.6163C66.1197 58.6132 66.36 58.6784 66.5692 58.8046C66.7783 58.9309 66.948 59.1132 67.059 59.3308C67.1699 59.5485 67.2178 59.7928 67.1972 60.0363C67.1765 60.2797 67.0881 60.5125 66.9421 60.7083L65.5954 62.5163L66.3234 64.6617C66.4018 64.8931 66.414 65.1419 66.3584 65.3798C66.3028 65.6178 66.1817 65.8354 66.0088 66.0082C65.836 66.1809 65.6182 66.3018 65.3802 66.3572C65.1422 66.4126 64.8934 66.4003 64.6621 66.3217ZM65.5955 14.8149L66.3181 12.6656C66.395 12.435 66.4061 12.1875 66.3502 11.9509C66.2943 11.7143 66.1736 11.4979 66.0017 11.326C65.8298 11.1541 65.6135 11.0335 65.3769 10.9776C65.1403 10.9217 64.8928 10.9328 64.6621 11.0096L62.5128 11.7323L60.7048 10.3856C60.509 10.2396 60.2762 10.1512 60.0327 10.1305C59.7893 10.1099 59.5449 10.1578 59.3273 10.2687C59.1096 10.3797 58.9274 10.5494 58.8011 10.7585C58.6748 10.9677 58.6096 11.208 58.6128 11.4523L58.6421 13.7189L56.7928 15.0269C56.593 15.1677 56.4367 15.3616 56.3415 15.5867C56.2464 15.8118 56.2162 16.059 56.2543 16.3004C56.2925 16.5418 56.3975 16.7677 56.5575 16.9524C56.7175 17.1371 56.926 17.2733 57.1595 17.3456L59.3235 18.0123L59.9901 20.1763C60.0624 20.4097 60.1986 20.6183 60.3834 20.7782C60.5681 20.9382 60.7939 21.0432 61.0353 21.0814C61.2767 21.1196 61.5239 21.0894 61.749 20.9942C61.9741 20.899 62.168 20.7427 62.3088 20.5429L63.6168 18.6936L65.8835 18.7229C66.1278 18.7261 66.3681 18.6609 66.5772 18.5346C66.7864 18.4084 66.956 18.2261 67.067 18.0085C67.178 17.7908 67.2259 17.5465 67.2052 17.303C67.1845 17.0596 67.0962 16.8268 66.9501 16.6309L65.5955 14.8149Z" fill="url(#paint0_linear_15_1984)"/>
<defs>
<linearGradient id="paint0_linear_15_1984" x1="38.6623" y1="77.3259" x2="38.6623" y2="-3.68719e-05" gradientUnits="userSpaceOnUse">
<stop stop-color="#588AD6"/>
<stop offset="1" stop-color="#8D60EF"/>
</linearGradient>
</defs>
</svg>
