<svg width="71" height="71" viewBox="0 0 71 71" fill="none" xmlns="http://www.w3.org/2000/svg">
<path fill-rule="evenodd" clip-rule="evenodd" d="M69.9379 19.6653L66.7501 23.6289C66.5936 23.8221 66.3959 23.9778 66.1715 24.0849C65.9472 24.1919 65.7017 24.2474 65.4531 24.2474C65.2045 24.2474 64.959 24.1919 64.7346 24.0849C64.5103 23.9778 64.3126 23.8221 64.1561 23.6289L60.9682 19.6653C60.7734 19.4213 60.6515 19.1273 60.6165 18.8171C60.5815 18.5069 60.6349 18.1931 60.7704 17.9119C60.9059 17.6307 61.1182 17.3935 61.3826 17.2276C61.6471 17.0617 61.953 16.9739 62.2652 16.9743H63.0288C63.0248 13.9405 61.8896 11.0171 59.8451 8.77562C57.8007 6.53409 54.9938 5.13549 51.9731 4.85314C51.6777 4.82119 51.4049 4.68028 51.2079 4.45793C51.0109 4.23558 50.9038 3.94777 50.9076 3.65071V1.21677C50.909 1.04753 50.9454 0.880397 51.0145 0.725894C51.0836 0.57139 51.1839 0.432856 51.3091 0.319007C51.4344 0.205158 51.5818 0.118456 51.7422 0.0643554C51.9025 0.0102552 52.0724 -0.0100728 52.241 0.00465008C56.5008 0.356181 60.4729 2.29604 63.3693 5.43942C66.2657 8.58279 67.8748 12.7 67.8773 16.9743H68.641C68.9531 16.9739 69.2591 17.0617 69.5235 17.2276C69.788 17.3935 70.0002 17.6307 70.1358 17.9119C70.2713 18.1931 70.3247 18.5069 70.2897 18.8171C70.2547 19.1273 70.1327 19.4213 69.9379 19.6653ZM0.362168 50.647L3.55005 46.6834C3.70652 46.4902 3.90418 46.3344 4.12857 46.2274C4.35296 46.1204 4.59842 46.0649 4.84702 46.0649C5.09562 46.0649 5.34108 46.1204 5.56547 46.2274C5.78986 46.3344 5.98751 46.4902 6.14399 46.6834L9.33186 50.647C9.52666 50.891 9.64858 51.185 9.68358 51.4952C9.71859 51.8054 9.66524 52.1192 9.5297 52.4004C9.39416 52.6816 9.18194 52.9188 8.91747 53.0847C8.65301 53.2506 8.34707 53.3384 8.03489 53.3379H7.27126C7.27529 56.3718 8.41047 59.2952 10.455 61.5367C12.4994 63.7782 15.3063 65.1768 18.327 65.4592C18.6222 65.4911 18.8948 65.6318 19.0918 65.8539C19.2888 66.076 19.396 66.3635 19.3925 66.6604V69.0955C19.3911 69.2648 19.3547 69.4319 19.2856 69.5864C19.2165 69.7409 19.1162 69.8794 18.991 69.9933C18.8658 70.1071 18.7183 70.1938 18.5579 70.2479C18.3976 70.302 18.2277 70.3224 18.0591 70.3076C13.7993 69.9561 9.82718 68.0163 6.93079 64.8729C4.03439 61.7295 2.42532 57.6123 2.42277 53.3379H1.65914C1.34696 53.3384 1.04102 53.2506 0.776559 53.0847C0.512097 52.9188 0.299871 52.6816 0.16433 52.4004C0.0287894 52.1192 -0.0245526 51.8054 0.0104489 51.4952C0.0454505 51.185 0.167372 50.891 0.362168 50.647ZM20.6046 36.161L15.1864 29.3586L18.7464 31.4022C19.3252 31.7241 19.953 31.9485 20.6046 32.0665V36.161ZM20.6046 8.47373L14.567 18.3913L20.6046 16.0277V8.47373ZM23.0288 36.161V32.0665C23.6828 31.9467 24.3129 31.7211 24.8942 31.3986L28.447 29.3586L23.0288 36.161ZM20.6046 24.6192V18.6301L14.7174 20.9356L20.6046 24.6192ZM23.0288 24.6192V18.6301L28.9173 20.9343L23.0288 24.6192ZM42.4227 21.8228C42.4227 17.7473 41.2142 13.7633 38.95 10.3747C36.6858 6.98602 33.4675 4.34488 29.7023 2.78526C25.937 1.22564 21.7938 0.817568 17.7966 1.61266C13.7994 2.40775 10.1278 4.37028 7.24599 7.25209C4.36418 10.1339 2.40164 13.8056 1.60655 17.8027C0.811464 21.7999 1.21953 25.9431 2.77916 29.7084C4.33878 33.4736 6.97991 36.6919 10.3686 38.9561C13.7572 41.2203 17.7412 42.4288 21.8167 42.4288C24.7473 42.4273 27.6425 41.7883 30.3015 40.5561V37.5561C30.3027 37.023 30.4431 36.4994 30.7088 36.0371C30.9746 35.5749 31.3565 35.1902 31.8167 34.921L40.8591 29.6361C41.8898 27.1601 42.4211 24.5048 42.4227 21.8228ZM11.1997 19.2604L20.1282 4.59369C20.3039 4.30313 20.5517 4.06284 20.8475 3.89607C21.1433 3.72929 21.4771 3.64166 21.8167 3.64166C22.1562 3.64166 22.4901 3.72929 22.7859 3.89607C23.0817 4.06284 23.3294 4.30313 23.5052 4.59369L32.4337 19.2604C32.7058 19.7093 32.7909 20.2472 32.6708 20.7583C32.5507 21.2694 32.2349 21.7129 31.7912 21.9937L22.8615 27.5816C22.5476 27.7768 22.1852 27.8803 21.8155 27.8803C21.4457 27.8803 21.0834 27.7768 20.7694 27.5816L11.8421 21.9961C11.3986 21.7147 11.0829 21.2707 10.9628 20.7593C10.8427 20.2479 10.9278 19.7098 11.1997 19.2604ZM32.3318 28.3682L23.8239 39.0482C23.5807 39.3455 23.2744 39.585 22.9272 39.7494C22.5801 39.9139 22.2008 39.9992 21.8167 39.9992C21.4326 39.9992 21.0532 39.9139 20.7061 39.7494C20.359 39.585 20.0527 39.3455 19.8094 39.0482L11.3015 28.3682C11.0406 28.0475 10.9015 27.6449 10.9086 27.2315C10.9157 26.8181 11.0686 26.4205 11.3403 26.1088C11.6268 25.778 12.0194 25.5571 12.4509 25.4842C12.8824 25.4112 13.3258 25.4906 13.7052 25.7088L19.9464 29.2919C20.5212 29.6056 21.1655 29.77 21.8203 29.77C22.4751 29.77 23.1195 29.6056 23.6943 29.2919L29.927 25.7125C30.3064 25.4939 30.7501 25.4143 31.1819 25.4873C31.6136 25.5603 32.0065 25.7813 32.293 26.1125C32.5638 26.4238 32.7162 26.8207 32.7233 27.2333C32.7303 27.6459 32.5917 28.0477 32.3318 28.3682ZM23.0288 16.0265V8.47373L29.0639 18.3877L23.0288 16.0265ZM68.778 37.0131L51.2301 26.7585C51.1322 26.7013 51.021 26.6712 50.9076 26.6712C50.7943 26.6712 50.6831 26.7013 50.5852 26.7585L33.0386 37.0131C32.9438 37.0687 32.8651 37.1479 32.8102 37.2432C32.7554 37.3384 32.7263 37.4462 32.7258 37.5561V58.2107C32.7263 58.3204 32.7553 58.4281 32.8099 58.5233C32.8645 58.6185 32.9429 58.6979 33.0373 58.7537L50.5852 69.0082C50.6833 69.0648 50.7945 69.0946 50.9076 69.0946C51.0208 69.0946 51.132 69.0648 51.2301 69.0082L68.7767 58.7537C68.8715 58.6981 68.9502 58.6188 69.0051 58.5236C69.0599 58.4284 69.089 58.3205 69.0895 58.2107V37.5561C69.089 37.4464 69.06 37.3387 69.0054 37.2435C68.9508 37.1483 68.8724 37.0689 68.778 37.0131ZM66.6652 55.7876C66.6652 56.2115 66.5541 56.628 66.3429 56.9955C66.1317 57.363 65.8278 57.6688 65.4616 57.8822L52.1283 65.6737C51.757 65.8908 51.3347 66.0052 50.9046 66.0052C50.4746 66.0052 50.0522 65.8908 49.681 65.6737L36.3476 57.8822C35.9825 57.668 35.6799 57.3619 35.4698 56.9945C35.2597 56.627 35.1495 56.2109 35.1501 55.7876V39.9791C35.1501 39.5553 35.2612 39.1388 35.4724 38.7713C35.6836 38.4037 35.9875 38.098 36.3537 37.8846L49.687 30.0931C50.0583 29.876 50.4806 29.7616 50.9107 29.7616C51.3407 29.7616 51.7631 29.876 52.1343 30.0931L65.4677 37.8846C65.8328 38.0988 66.1354 38.4048 66.3455 38.7723C66.5556 39.1398 66.6658 39.5559 66.6652 39.9791V55.7876ZM37.5742 51.4943V39.9792L50.9076 32.1864L64.2409 39.9792V50.4555L60.5476 47.0374C59.9072 46.4355 59.0683 46.0895 58.1899 46.0649C57.3114 46.0403 56.4545 46.3389 55.7815 46.904L51.5136 50.4689L47.8191 47.0349C47.178 46.4331 46.3383 46.0876 45.4593 46.0639C44.5803 46.0402 43.7232 46.34 43.0506 46.9064L37.5742 51.4943ZM55.4028 39.1432C55.1744 38.9171 54.8654 38.7909 54.5439 38.7925C53.6536 38.7985 52.7914 39.1057 52.0979 39.664C51.4043 39.1057 50.5422 38.7985 49.6518 38.7925C49.3337 38.7928 49.0287 38.9189 48.8032 39.1433C48.5777 39.3676 48.4501 39.672 48.4482 39.9901C48.4462 40.3098 48.5698 40.6175 48.7924 40.8469C49.0151 41.0763 49.3189 41.2091 49.6385 41.2168C49.8038 41.1978 49.9713 41.2159 50.1288 41.2696C50.2863 41.3233 50.43 41.4113 50.5493 41.5273C50.6687 41.6433 50.7607 41.7843 50.8189 41.9402C50.8771 42.0962 50.8999 42.2631 50.8858 42.4289C50.8858 42.7503 51.0135 43.0587 51.2408 43.286C51.4681 43.5133 51.7764 43.641 52.0979 43.641C52.4193 43.641 52.7277 43.5133 52.955 43.286C53.1823 43.0587 53.31 42.7503 53.31 42.4289C53.2958 42.2632 53.3186 42.0964 53.3768 41.9406C53.4349 41.7848 53.5269 41.6438 53.6461 41.5278C53.7653 41.4119 53.9087 41.3238 54.0661 41.27C54.2235 41.2162 54.3908 41.198 54.5561 41.2168C54.8775 41.2151 55.1852 41.0859 55.4114 40.8574C55.6376 40.629 55.7637 40.32 55.7621 39.9986C55.7605 39.6771 55.6313 39.3694 55.4028 39.1432ZM57.3319 48.7719L53.3077 52.1319L59.9465 58.2979L64.241 55.7876V53.761L58.9077 48.8143C58.6977 48.6118 58.4196 48.4952 58.128 48.4874C57.8364 48.4795 57.5525 48.581 57.3319 48.7719ZM37.5742 54.6555L44.5973 48.7719C44.8172 48.5823 45.0998 48.4815 45.3901 48.4891C45.6803 48.4967 45.9573 48.6123 46.167 48.8131L57.7597 59.5804L50.9076 63.5804L37.5742 55.7877V54.6555Z" fill="url(#paint0_linear_15_1982)"/>
<defs>
<linearGradient id="paint0_linear_15_1982" x1="35.1501" y1="70.3123" x2="35.1501" y2="-3.35275e-05" gradientUnits="userSpaceOnUse">
<stop stop-color="#588AD6"/>
<stop offset="1" stop-color="#00B59C"/>
</linearGradient>
</defs>
</svg>
