<svg width="70" height="67" viewBox="0 0 70 67" fill="none" xmlns="http://www.w3.org/2000/svg">
<path fill-rule="evenodd" clip-rule="evenodd" d="M51.4059 31.1979C51.4059 40.2441 44.0463 47.6037 35.0001 47.6037C25.9538 47.6037 18.5942 40.244 18.5942 31.1977C18.5942 28.1348 19.4465 25.145 21.0616 22.5471L35.0001 0L48.9413 22.5516C50.5537 25.1452 51.4059 28.1349 51.4059 31.1979ZM35.0001 51.7053C25.8446 51.7053 18.072 45.6742 15.4445 37.3765C11.4619 39.5437 9.22437 42.2408 9.22437 44.9655C9.22437 47.8223 11.7818 50.7396 16.2409 52.9694C21.2173 55.4575 27.8795 56.828 35.0001 56.828C42.1207 56.828 48.7828 55.4577 53.7593 52.9694C58.2183 50.7396 60.7758 47.8225 60.7758 44.9655C60.7758 42.2408 58.5383 39.5437 54.5557 37.3765C51.9282 45.6741 44.1556 51.7053 35.0001 51.7053ZM65.559 41.7015C64.9534 41.1917 64.2938 40.6984 63.5856 40.2229C64.4325 41.7328 64.8773 43.3278 64.8773 44.9654C64.8773 49.499 61.5803 53.6443 55.5935 56.6378C50.0586 59.4052 42.7448 60.9295 35 60.9295C27.2552 60.9295 19.9415 59.4054 14.4066 56.6378C8.41982 53.6443 5.12271 49.499 5.12271 44.9654C5.12271 43.3278 5.56746 41.7328 6.41457 40.2229C5.70623 40.6984 5.0467 41.1917 4.44104 41.7015C2.41514 43.4071 0 46.1581 0 49.5775C0 51.58 0.816484 53.5605 2.42662 55.464C4.11236 57.4566 6.56551 59.2663 9.71838 60.8427C16.437 64.202 25.4156 66.0521 35 66.0521C44.5845 66.0521 53.563 64.202 60.2818 60.8425C63.4345 59.2662 65.8878 57.4564 67.5734 55.4639C69.1835 53.5605 70 51.58 70 49.5775C70 46.1581 67.5849 43.4071 65.559 41.7015Z" fill="url(#paint0_linear_15_1991)"/>
<defs>
<linearGradient id="paint0_linear_15_1991" x1="35" y1="66.0521" x2="35" y2="-3.14961e-05" gradientUnits="userSpaceOnUse">
<stop stop-color="#588AD6"/>
<stop offset="1" stop-color="#00B59C"/>
</linearGradient>
</defs>
</svg>
