<svg width="43" height="76" viewBox="0 0 43 76" fill="none" xmlns="http://www.w3.org/2000/svg">
<path fill-rule="evenodd" clip-rule="evenodd" d="M21.3333 0C17.114 0 12.9894 1.25118 9.48118 3.59531C5.97293 5.93945 3.23858 9.27126 1.62391 13.1694C0.00924335 17.0676 -0.413228 21.357 0.409924 25.4953C1.23308 29.6335 3.26488 33.4348 6.2484 36.4183C9.23192 39.4018 13.0332 41.4336 17.1714 42.2568C21.3097 43.0799 25.5991 42.6574 29.4973 41.0428C33.3954 39.4281 36.7272 36.6937 39.0714 33.1855C41.4155 29.6772 42.6667 25.5527 42.6667 21.3333C42.6667 15.6754 40.4191 10.2492 36.4183 6.24839C32.4175 2.24761 26.9913 0 21.3333 0ZM30.208 28.292L23.2747 37.6893C23.0507 37.9923 22.7587 38.2386 22.4222 38.4082C22.0857 38.5779 21.7142 38.6663 21.3373 38.6663C20.9605 38.6663 20.5889 38.5779 20.2525 38.4082C19.916 38.2386 19.624 37.9923 19.4 37.6893L12.4667 28.292C12.2121 27.9453 12.086 27.5209 12.1099 27.0914C12.1338 26.6619 12.3063 26.2541 12.5977 25.9378C12.8892 25.6214 13.2815 25.4162 13.7076 25.3573C14.1336 25.2984 14.567 25.3893 14.9333 25.6147L20.024 28.7693C20.4225 29.0073 20.8779 29.1329 21.342 29.1329C21.8061 29.1329 22.2616 29.0073 22.66 28.7693L27.7333 25.616C28.0996 25.389 28.5335 25.2966 28.9605 25.3546C29.3874 25.4127 29.7809 25.6177 30.0732 25.9343C30.3655 26.2509 30.5384 26.6594 30.5623 27.0896C30.5862 27.5199 30.4595 27.945 30.204 28.292H30.208ZM31.9413 19.96C31.8775 20.2274 31.7609 20.4793 31.5983 20.7009C31.4357 20.9225 31.2305 21.1095 30.9947 21.2507L22.4 26.372C22.0766 26.5653 21.7068 26.6674 21.33 26.6674C20.9532 26.6674 20.5834 26.5653 20.26 26.372L11.6667 21.252C11.4305 21.111 11.2249 20.9242 11.0621 20.7026C10.8993 20.4809 10.7825 20.2289 10.7187 19.9613C10.6553 19.6966 10.6462 19.4217 10.692 19.1533C10.7379 18.885 10.8376 18.6287 10.9853 18.4L19.58 4.956C19.7799 4.67768 20.0432 4.45094 20.3481 4.29454C20.6529 4.13814 20.9907 4.05657 21.3333 4.05657C21.676 4.05657 22.0137 4.13814 22.3186 4.29454C22.6235 4.45094 22.8868 4.67768 23.0867 4.956L31.68 18.4C31.8275 18.6285 31.9271 18.8846 31.9727 19.1528C32.0183 19.4209 32.009 19.6956 31.9453 19.96H31.9413ZM20.0001 23.1106V17.9226L14.6534 19.9239L20.0001 23.1106ZM17.1121 30.1067L18.6201 31.04C19.4405 31.5332 20.3797 31.7937 21.3369 31.7934C22.2941 31.7932 23.2332 31.5323 24.0534 31.0387L25.5547 30.1053L21.3334 35.8227L17.1121 30.1067ZM20 15.0759V9.25061L15.1067 16.9066L20 15.0759ZM22.6667 15.0759V9.25061L27.5601 16.9066L22.6667 15.0759ZM22.6667 23.1106L28.0134 19.9239L22.6667 17.9226V23.1106ZM22.6667 52V45.2933C22.2267 45.32 21.7867 45.3333 21.3333 45.3333C20.88 45.3333 20.44 45.32 20 45.2933V52H22.6667ZM25.8214 48.7133C29.7921 47.1853 35.1734 48.5026 37.3321 49.1253C36.7443 50.1244 36.0927 51.0846 35.3814 51.9999H22.8201C22.9918 51.2386 23.3589 50.5352 23.8852 49.9589C24.4115 49.3826 25.0788 48.9533 25.8214 48.7133ZM16.8453 48.7133C12.872 47.1853 7.496 48.5026 5.36267 49.14C5.93592 50.1374 6.57886 51.0931 7.28667 52H19.8467C19.6749 51.2386 19.3078 50.5352 18.7815 49.9589C18.2553 49.3826 17.588 48.9533 16.8453 48.7133ZM32.9334 74.1173C32.7671 74.6643 32.4287 75.1431 31.9684 75.4823C31.5081 75.8216 30.9505 76.0031 30.3788 75.9999H12.2881C11.7163 76.0031 11.1588 75.8216 10.6985 75.4823C10.2382 75.1431 9.89969 74.6643 9.73342 74.1173L5.80542 61.3333H36.8614L32.9334 74.1173ZM4.00008 54.6666H38.6667C39.4031 54.6666 40.0001 55.2636 40.0001 56V57.3333C40.0001 58.0697 39.4031 58.6666 38.6667 58.6666H4.00008C3.2637 58.6666 2.66675 58.0697 2.66675 57.3333V56C2.66675 55.2636 3.2637 54.6666 4.00008 54.6666Z" fill="url(#paint0_linear_15_1985)"/>
<defs>
<linearGradient id="paint0_linear_15_1985" x1="21.3333" y1="75.9999" x2="21.3333" y2="-3.62396e-05" gradientUnits="userSpaceOnUse">
<stop stop-color="#00B59C"/>
<stop offset="1" stop-color="#58D66C"/>
</linearGradient>
</defs>
</svg>
