<svg width="880" height="224" viewBox="0 0 880 224" fill="none" xmlns="http://www.w3.org/2000/svg">
<mask id="mask0_18_383" style="mask-type:alpha" maskUnits="userSpaceOnUse" x="0" y="47" width="176" height="177">
<path d="M88 224C136.601 224 176 184.472 176 135.712C176 86.9514 136.601 47.4233 88 47.4233C39.3989 47.4233 0 86.9514 0 135.712C0 184.472 39.3989 224 88 224Z" fill="url(#paint0_linear_18_383)"/>
</mask>
<g mask="url(#mask0_18_383)">
<path d="M88 224.236C136.601 224.236 176 184.708 176 135.948C176 87.1877 136.601 47.6597 88 47.6597C39.3989 47.6597 0 87.1877 0 135.948C0 184.708 39.3989 224.236 88 224.236Z" fill="url(#paint1_linear_18_383)"/>
<g filter="url(#filter0_d_18_383)">
<path d="M134.434 210.716C140.131 194.527 142.766 168.989 121.184 144.636C99.6059 120.279 87.995 97.2785 87.995 97.2785L87.2859 47.4385C39.0167 47.8169 0 87.1884 0 135.712C0 184.235 39.3989 224 88 224C105.047 224 120.957 219.131 134.434 210.716V210.716Z" fill="url(#paint2_linear_18_383)" shape-rendering="crispEdges"/>
</g>
<g filter="url(#filter1_d_18_383)">
<path d="M62.2638 163.575C29.2361 120.006 59.6338 85.0038 59.6338 85.0038L73.1456 48.6846C31.6197 55.7628 0 92.0316 0 135.712C0 184.472 39.3989 224 88 224C102.326 224 115.848 220.564 127.801 214.47C116.346 189.865 95.2914 207.144 62.2587 163.575H62.2638Z" fill="url(#paint3_linear_18_383)"/>
</g>
<g filter="url(#filter2_d_18_383)">
<path d="M142.545 -0.330835C142.545 -0.330835 112.271 -3.65057 87.7477 14.4302C63.2248 -3.65057 32.9502 -0.330835 32.9502 -0.330835C32.9502 -0.330835 22.7486 31.094 39.783 59.7449C59.5055 92.9172 87.1971 95.2855 87.1971 95.2855C87.3723 95.2755 87.5575 95.2505 87.7477 95.2205C87.9379 95.2505 88.1232 95.2755 88.2984 95.2855C88.2984 95.2855 115.99 92.9172 135.712 59.7449C152.752 31.094 142.545 -0.330835 142.545 -0.330835Z" fill="black"/>
</g>
</g>
<mask id="mask1_18_383" style="mask-type:alpha" maskUnits="userSpaceOnUse" x="29" y="0" width="117" height="96">
<path d="M142.294 0.239477C142.294 0.239477 112.019 -3.08026 87.496 15.0005C62.973 -3.08026 32.6985 0.239477 32.6985 0.239477C32.6985 0.239477 22.4969 31.6643 39.5313 60.3152C59.2538 93.4875 86.9454 95.8559 86.9454 95.8559C87.1206 95.8458 87.3058 95.8208 87.496 95.7908C87.6862 95.8208 87.8714 95.8458 88.0466 95.8559C88.0466 95.8559 115.738 93.4875 135.461 60.3152C152.5 31.6643 142.294 0.239477 142.294 0.239477Z" fill="white"/>
</mask>
<g mask="url(#mask1_18_383)">
<path d="M103.584 31.9347C98.8741 24.8446 93.3478 19.3167 87.4961 15.0005C112.019 -3.08026 142.294 0.239477 142.294 0.239477C142.294 0.239477 152.495 31.6643 135.461 60.3152C115.738 93.4875 88.0467 95.8559 88.0467 95.8559C87.8715 95.8458 87.6863 95.8208 87.4961 95.7908C97.057 94.2686 127.542 68.0061 103.584 31.9297V31.9347Z" fill="url(#paint4_linear_18_383)"/>
<path d="M71.4077 31.9347C76.118 24.8446 81.6443 19.3167 87.496 15.0005C62.973 -3.08026 32.6985 0.239477 32.6985 0.239477C32.6985 0.239477 22.4969 31.6643 39.5313 60.3152C59.2538 93.4875 86.9454 95.8559 86.9454 95.8559C87.1206 95.8458 87.3058 95.8208 87.496 95.7908C77.9351 94.2686 47.4503 68.0061 71.4077 31.9297V31.9347Z" fill="url(#paint5_linear_18_383)"/>
<g filter="url(#filter3_d_18_383)">
<path d="M103.584 31.9346C98.8741 24.8445 93.3477 19.3166 87.4961 15.0005C81.6444 19.3166 76.1131 24.8445 71.4077 31.9346C47.4504 68.0111 77.9352 94.2736 87.4961 95.7957C97.057 94.2736 127.542 68.0111 103.584 31.9346V31.9346Z" fill="url(#paint6_linear_18_383)"/>
</g>
</g>
<path d="M324.827 105.284C324.827 109.525 323.645 113.199 321.279 116.309C319.009 119.324 315.698 121.68 311.346 123.376C316.833 125.166 320.948 127.805 323.692 131.291C326.435 134.778 327.807 138.971 327.807 143.871C327.807 153.011 324.401 159.795 317.59 164.224C310.873 168.653 301.128 170.867 288.356 170.867C286.653 170.867 284.713 170.82 282.537 170.726C280.456 170.632 278.28 170.443 276.01 170.161C273.834 169.972 271.61 169.642 269.34 169.171C267.164 168.794 265.177 168.276 263.379 167.616C258.46 165.826 256 162.622 256 158.005V90.726C256 88.8414 256.473 87.3808 257.419 86.3443C258.46 85.3078 259.926 84.5069 261.818 83.9415C264.94 82.905 268.819 82.1512 273.455 81.68C278.091 81.1146 282.869 80.832 287.788 80.832C299.614 80.832 308.744 82.8579 315.177 86.9097C321.61 90.8673 324.827 96.9922 324.827 105.284ZM305.101 142.881C305.101 136.191 300.797 132.846 292.187 132.846H277.571V152.634C279.084 153.011 280.976 153.294 283.247 153.482C285.518 153.671 287.694 153.765 289.775 153.765C294.316 153.765 298.006 152.917 300.844 151.221C303.682 149.43 305.101 146.651 305.101 142.881ZM277.571 117.157H290.768C294.458 117.157 297.344 116.309 299.425 114.613C301.506 112.917 302.547 110.42 302.547 107.122C302.547 104.106 301.317 101.798 298.857 100.196C296.492 98.4998 292.897 97.6518 288.072 97.6518C286.274 97.6518 284.382 97.746 282.396 97.9344C280.409 98.0287 278.8 98.17 277.571 98.3585V117.157Z" fill="white"/>
<path d="M354.094 169.737C349.837 169.737 346.762 169.077 344.87 167.758C343.072 166.344 342.174 163.659 342.174 159.701V76.733C343.12 76.4503 344.444 76.1677 346.147 75.885C347.945 75.6023 349.884 75.4609 351.966 75.4609C356.128 75.4609 359.156 76.1677 361.048 77.5811C362.94 78.9945 363.886 81.68 363.886 85.6376V168.606C362.845 168.888 361.474 169.124 359.771 169.313C358.068 169.595 356.176 169.737 354.094 169.737Z" fill="white"/>
<path d="M446.528 154.613C446.528 159.042 444.588 162.434 440.709 164.79C437.682 166.674 433.945 168.135 429.498 169.171C425.052 170.302 420.132 170.867 414.739 170.867C409.63 170.867 404.995 170.302 400.832 169.171C396.669 168.135 393.074 166.439 390.047 164.083C387.114 161.727 384.796 158.759 383.093 155.178C381.485 151.598 380.68 147.263 380.68 142.175V101.044C381.721 100.761 383.093 100.479 384.796 100.196C386.499 99.9132 388.391 99.7719 390.472 99.7719C394.73 99.7719 397.757 100.479 399.555 101.892C401.447 103.305 402.393 105.991 402.393 109.949V142.033C402.393 146.274 403.481 149.336 405.657 151.221C407.833 153.011 410.908 153.906 414.881 153.906C417.341 153.906 419.375 153.718 420.983 153.341C422.686 152.87 423.964 152.399 424.815 151.927V101.044C425.761 100.761 427.086 100.479 428.789 100.196C430.491 99.9132 432.384 99.7719 434.465 99.7719C438.722 99.7719 441.797 100.479 443.689 101.892C445.581 103.305 446.528 105.991 446.528 109.949V154.613Z" fill="white"/>
<path d="M480.895 143.729C482.219 147.687 484.537 150.514 487.848 152.21C491.159 153.812 494.991 154.613 499.343 154.613C503.317 154.613 507.054 154.095 510.554 153.058C514.055 151.927 516.893 150.702 519.069 149.383C520.488 150.325 521.67 151.55 522.617 153.058C523.563 154.566 524.036 156.215 524.036 158.005C524.036 160.172 523.373 162.057 522.049 163.659C520.724 165.261 518.88 166.627 516.514 167.758C514.244 168.794 511.5 169.548 508.283 170.019C505.161 170.585 501.708 170.867 497.924 170.867C492.342 170.867 487.186 170.113 482.456 168.606C477.725 167.004 473.657 164.695 470.251 161.68C466.845 158.57 464.149 154.707 462.162 150.09C460.27 145.473 459.324 140.055 459.324 133.835C459.324 127.805 460.27 122.575 462.162 118.146C464.149 113.718 466.751 110.043 469.967 107.122C473.279 104.201 477.016 102.08 481.178 100.761C485.436 99.3479 489.788 98.6412 494.234 98.6412C499.059 98.6412 503.458 99.395 507.432 100.903C511.5 102.316 514.953 104.342 517.792 106.98C520.724 109.619 522.995 112.775 524.603 116.45C526.212 120.125 527.016 124.13 527.016 128.464C527.016 131.48 526.212 133.741 524.603 135.249C522.995 136.757 520.724 137.746 517.792 138.217L480.895 143.729ZM494.376 114.613C490.308 114.613 486.902 115.885 484.158 118.429C481.509 120.879 479.948 124.46 479.475 129.171L506.581 124.79C506.391 122.34 505.303 120.031 503.317 117.864C501.33 115.697 498.35 114.613 494.376 114.613Z" fill="white"/>
<path d="M576.113 98.6412C580.749 98.6412 585.101 99.395 589.169 100.903C593.237 102.41 596.737 104.672 599.67 107.687C602.698 110.702 605.063 114.472 606.766 118.995C608.469 123.423 609.32 128.606 609.32 134.542C609.32 140.479 608.421 145.708 606.624 150.231C604.826 154.754 602.272 158.57 598.961 161.68C595.744 164.695 591.818 167.004 587.182 168.606C582.641 170.113 577.532 170.867 571.855 170.867C565.895 170.867 560.786 170.161 556.529 168.747C552.272 167.334 548.724 165.638 545.886 163.659C541.817 160.926 539.783 157.346 539.783 152.917V76.733C540.824 76.4503 542.196 76.1677 543.899 75.885C545.602 75.6023 547.494 75.4609 549.575 75.4609C553.833 75.4609 556.86 76.1677 558.658 77.5811C560.55 78.9945 561.496 81.68 561.496 85.6376V101.751C563.388 100.903 565.564 100.196 568.024 99.6305C570.484 98.9709 573.18 98.6412 576.113 98.6412ZM572.139 115.602C569.963 115.602 567.977 115.932 566.179 116.592C564.476 117.157 562.868 117.911 561.354 118.853V151.221C562.489 151.974 563.908 152.587 565.611 153.058C567.314 153.529 569.301 153.765 571.572 153.765C576.302 153.765 580.039 152.163 582.783 148.959C585.621 145.755 587.04 140.95 587.04 134.542C587.04 127.946 585.668 123.141 582.925 120.125C580.276 117.11 576.68 115.602 572.139 115.602Z" fill="white"/>
<path d="M640.545 143.729C641.87 147.687 644.188 150.514 647.499 152.21C650.81 153.812 654.642 154.613 658.994 154.613C662.967 154.613 666.704 154.095 670.205 153.058C673.705 151.927 676.543 150.702 678.719 149.383C680.138 150.325 681.321 151.55 682.267 153.058C683.213 154.566 683.686 156.215 683.686 158.005C683.686 160.172 683.024 162.057 681.699 163.659C680.375 165.261 678.53 166.627 676.165 167.758C673.894 168.794 671.151 169.548 667.934 170.019C664.812 170.585 661.359 170.867 657.574 170.867C651.993 170.867 646.837 170.113 642.106 168.606C637.376 167.004 633.308 164.695 629.902 161.68C626.496 158.57 623.8 154.707 621.813 150.09C619.921 145.473 618.975 140.055 618.975 133.835C618.975 127.805 619.921 122.575 621.813 118.146C623.8 113.718 626.401 110.043 629.618 107.122C632.929 104.201 636.666 102.08 640.829 100.761C645.086 99.3479 649.438 98.6412 653.885 98.6412C658.71 98.6412 663.109 99.395 667.083 100.903C671.151 102.316 674.604 104.342 677.442 106.98C680.375 109.619 682.646 112.775 684.254 116.45C685.862 120.125 686.666 124.13 686.666 128.464C686.666 131.48 685.862 133.741 684.254 135.249C682.646 136.757 680.375 137.746 677.442 138.217L640.545 143.729ZM654.027 114.613C649.959 114.613 646.553 115.885 643.809 118.429C641.16 120.879 639.599 124.46 639.126 129.171L666.231 124.79C666.042 122.34 664.954 120.031 662.967 117.864C660.98 115.697 658 114.613 654.027 114.613Z" fill="white"/>
<path d="M720.863 168.606C719.917 168.888 718.592 169.124 716.889 169.313C715.186 169.595 713.294 169.737 711.213 169.737C706.955 169.737 703.881 169.077 701.988 167.758C700.096 166.344 699.15 163.659 699.15 159.701V116.592C699.15 113.953 699.812 111.692 701.137 109.807C702.461 107.923 704.306 106.274 706.672 104.86C709.794 102.976 713.531 101.515 717.883 100.479C722.329 99.3479 726.965 98.7825 731.79 98.7825C741.629 98.7825 746.549 102.08 746.549 108.676C746.549 110.278 746.312 111.739 745.839 113.058C745.366 114.377 744.846 115.508 744.278 116.45C742.102 115.979 739.453 115.744 736.331 115.744C733.587 115.744 730.844 116.073 728.1 116.733C725.357 117.393 722.944 118.288 720.863 119.419V168.606Z" fill="white"/>
<path d="M777.128 168.606C776.182 168.888 774.858 169.124 773.155 169.313C771.452 169.595 769.56 169.737 767.478 169.737C763.221 169.737 760.146 169.077 758.254 167.758C756.362 166.344 755.416 163.659 755.416 159.701V116.592C755.416 113.953 756.078 111.692 757.403 109.807C758.727 107.923 760.572 106.274 762.937 104.86C766.059 102.976 769.796 101.515 774.148 100.479C778.595 99.3479 783.231 98.7825 788.056 98.7825C797.895 98.7825 802.814 102.08 802.814 108.676C802.814 110.278 802.578 111.739 802.105 113.058C801.632 114.377 801.112 115.508 800.544 116.45C798.368 115.979 795.719 115.744 792.597 115.744C789.853 115.744 787.11 116.073 784.366 116.733C781.622 117.393 779.21 118.288 777.128 119.419V168.606Z" fill="white"/>
<path d="M826.499 151.786C824.323 147.075 821.816 140.95 818.978 133.411C816.234 125.779 813.349 115.932 810.321 103.871C811.457 102.646 813.018 101.609 815.004 100.761C817.086 99.819 819.309 99.3479 821.674 99.3479C824.702 99.3479 827.162 100.007 829.054 101.327C830.946 102.552 832.412 104.86 833.453 108.252C835.534 115.131 837.616 121.916 839.697 128.606C841.873 135.296 844.049 142.033 846.225 148.818H846.793C847.928 145.614 849.111 142.128 850.34 138.358C851.57 134.495 852.753 130.537 853.888 126.486C855.024 122.34 856.064 118.194 857.01 114.048C858.051 109.807 858.95 105.708 859.707 101.751C862.639 100.149 865.714 99.3479 868.931 99.3479C871.958 99.3479 874.56 100.007 876.736 101.327C878.912 102.646 880 104.813 880 107.828C880 111.221 879.385 115.555 878.155 120.832C877.02 126.015 875.459 131.48 873.472 137.228C871.58 142.881 869.404 148.535 866.944 154.189C864.579 159.748 862.119 164.648 859.565 168.889C854.267 177.84 849.489 184.483 845.232 188.818C840.974 193.247 836.67 195.461 832.318 195.461C828.817 195.461 825.932 194.377 823.661 192.21C821.39 190.137 820.019 187.452 819.546 184.154C822.573 181.515 825.695 178.406 828.912 174.825C832.223 171.338 835.014 167.805 837.285 164.224C835.676 163.753 833.973 162.717 832.176 161.115C830.473 159.419 828.581 156.309 826.499 151.786Z" fill="white"/>
<defs>
<filter id="filter0_d_18_383" x="-5.07429" y="32.2156" width="158.745" height="196.859" filterUnits="userSpaceOnUse" color-interpolation-filters="sRGB">
<feFlood flood-opacity="0" result="BackgroundImageFix"/>
<feColorMatrix in="SourceAlpha" type="matrix" values="0 0 0 0 0 0 0 0 0 0 0 0 0 0 0 0 0 0 127 0" result="hardAlpha"/>
<feOffset dx="5.07429" dy="-5.07429"/>
<feGaussianBlur stdDeviation="5.07429"/>
<feComposite in2="hardAlpha" operator="out"/>
<feColorMatrix type="matrix" values="0 0 0 0 0 0 0 0 0 0 0 0 0 0 0 0 0 0 0.15 0"/>
<feBlend mode="normal" in2="BackgroundImageFix" result="effect1_dropShadow_18_383"/>
<feBlend mode="normal" in="SourceGraphic" in2="effect1_dropShadow_18_383" result="shape"/>
</filter>
<filter id="filter1_d_18_383" x="-5.07429" y="43.6103" width="148.098" height="195.612" filterUnits="userSpaceOnUse" color-interpolation-filters="sRGB">
<feFlood flood-opacity="0" result="BackgroundImageFix"/>
<feColorMatrix in="SourceAlpha" type="matrix" values="0 0 0 0 0 0 0 0 0 0 0 0 0 0 0 0 0 0 127 0" result="hardAlpha"/>
<feOffset dx="5.07429" dy="5.07429"/>
<feGaussianBlur stdDeviation="5.07429"/>
<feComposite in2="hardAlpha" operator="out"/>
<feColorMatrix type="matrix" values="0 0 0 0 0 0 0 0 0 0 0 0 0 0 0 0 0 0 0.25 0"/>
<feBlend mode="normal" in2="BackgroundImageFix" result="effect1_dropShadow_18_383"/>
<feBlend mode="normal" in="SourceGraphic" in2="effect1_dropShadow_18_383" result="shape"/>
</filter>
<filter id="filter2_d_18_383" x="19.7716" y="-5.6446" width="135.954" height="116.153" filterUnits="userSpaceOnUse" color-interpolation-filters="sRGB">
<feFlood flood-opacity="0" result="BackgroundImageFix"/>
<feColorMatrix in="SourceAlpha" type="matrix" values="0 0 0 0 0 0 0 0 0 0 0 0 0 0 0 0 0 0 127 0" result="hardAlpha"/>
<feOffset dy="5.07429"/>
<feGaussianBlur stdDeviation="5.07429"/>
<feComposite in2="hardAlpha" operator="out"/>
<feColorMatrix type="matrix" values="0 0 0 0 0 0 0 0 0 0 0 0 0 0 0 0 0 0 0.25 0"/>
<feBlend mode="normal" in2="BackgroundImageFix" result="effect1_dropShadow_18_383"/>
<feBlend mode="normal" in="SourceGraphic" in2="effect1_dropShadow_18_383" result="shape"/>
</filter>
<filter id="filter3_d_18_383" x="52.2767" y="4.85192" width="70.4387" height="101.092" filterUnits="userSpaceOnUse" color-interpolation-filters="sRGB">
<feFlood flood-opacity="0" result="BackgroundImageFix"/>
<feColorMatrix in="SourceAlpha" type="matrix" values="0 0 0 0 0 0 0 0 0 0 0 0 0 0 0 0 0 0 127 0" result="hardAlpha"/>
<feOffset/>
<feGaussianBlur stdDeviation="5.07429"/>
<feComposite in2="hardAlpha" operator="out"/>
<feColorMatrix type="matrix" values="0 0 0 0 0 0 0 0 0 0 0 0 0 0 0 0 0 0 0.1 0"/>
<feBlend mode="normal" in2="BackgroundImageFix" result="effect1_dropShadow_18_383"/>
<feBlend mode="normal" in="SourceGraphic" in2="effect1_dropShadow_18_383" result="shape"/>
</filter>
<linearGradient id="paint0_linear_18_383" x1="73.9703" y1="95.8759" x2="109.279" y2="195.483" gradientUnits="userSpaceOnUse">
<stop offset="0.03" stop-color="#3A138E"/>
<stop offset="1" stop-color="#210D4D"/>
</linearGradient>
<linearGradient id="paint1_linear_18_383" x1="73.9703" y1="96.1123" x2="109.279" y2="195.72" gradientUnits="userSpaceOnUse">
<stop offset="0.03" stop-color="#3A138E"/>
<stop offset="1" stop-color="#210D4D"/>
</linearGradient>
<linearGradient id="paint2_linear_18_383" x1="138.537" y1="205.772" x2="27.9973" y2="77.7333" gradientUnits="userSpaceOnUse">
<stop stop-color="#240762"/>
<stop offset="0.426013" stop-color="#47209B" stop-opacity="0.58"/>
<stop offset="1" stop-color="#2C0976"/>
</linearGradient>
<linearGradient id="paint3_linear_18_383" x1="2.04065e-06" y1="136.342" x2="125.441" y2="214.484" gradientUnits="userSpaceOnUse">
<stop offset="0.03" stop-color="#5227AE"/>
<stop offset="1" stop-color="#240762"/>
</linearGradient>
<linearGradient id="paint4_linear_18_383" x1="142.359" y1="0.249496" x2="88.7806" y2="60.0696" gradientUnits="userSpaceOnUse">
<stop offset="0.03" stop-color="#04AC5C"/>
<stop offset="1" stop-color="#005226"/>
</linearGradient>
<linearGradient id="paint5_linear_18_383" x1="32.233" y1="0.249493" x2="87.3112" y2="54.0605" gradientUnits="userSpaceOnUse">
<stop offset="0.03" stop-color="#04AC5C"/>
<stop offset="1" stop-color="#005226"/>
</linearGradient>
<linearGradient id="paint6_linear_18_383" x1="87.4961" y1="14.9955" x2="87.4961" y2="93.6377" gradientUnits="userSpaceOnUse">
<stop stop-color="#05AD5C"/>
<stop offset="1" stop-color="#007994"/>
</linearGradient>
</defs>
</svg>
