<svg width="624" height="121" viewBox="0 0 624 121" fill="none" xmlns="http://www.w3.org/2000/svg">
<path d="M68.8272 30.2843C68.8272 34.5245 67.6446 38.1995 65.2794 41.309C63.0088 44.3243 59.6975 46.68 55.3455 48.3761C60.8328 50.1665 64.9482 52.8049 67.6919 56.2913C70.4355 59.7778 71.8073 63.9709 71.8073 68.8708C71.8073 78.011 68.4014 84.7955 61.5897 89.2242C54.8725 93.6529 45.1279 95.8673 32.3559 95.8673C30.6529 95.8673 28.7135 95.8202 26.5375 95.726C24.4561 95.6317 22.2801 95.4433 20.0095 95.1606C17.8336 94.9721 15.6103 94.6423 13.3397 94.1712C11.1637 93.7943 9.17695 93.276 7.37941 92.6164C2.4598 90.8261 0 87.6223 0 83.0051V15.726C0 13.8414 0.47304 12.3808 1.41912 11.3443C2.4598 10.3078 3.92622 9.50688 5.81838 8.94151C8.94044 7.905 12.8194 7.15116 17.4551 6.68001C22.0909 6.11464 26.8686 5.83196 31.7882 5.83196C43.6142 5.83196 52.7438 7.85788 59.1772 11.9097C65.6105 15.8673 68.8272 21.9922 68.8272 30.2843ZM49.1014 67.8814C49.1014 61.1912 44.7968 57.8461 36.1875 57.8461H21.5706V77.6341C23.0843 78.011 24.9765 78.2937 27.247 78.4821C29.5176 78.6706 31.6936 78.7648 33.775 78.7648C38.3162 78.7648 42.0059 77.9168 44.8441 76.2207C47.6823 74.4303 49.1014 71.6506 49.1014 67.8814ZM21.5706 42.1571H34.7684C38.4581 42.1571 41.3436 41.309 43.425 39.6129C45.5063 37.9168 46.547 35.4197 46.547 32.1217C46.547 29.1064 45.3171 26.7978 42.8573 25.1959C40.4921 23.4998 36.897 22.6518 32.072 22.6518C30.2745 22.6518 28.3823 22.746 26.3956 22.9344C24.4088 23.0287 22.8005 23.17 21.5706 23.3585V42.1571Z" fill="#2C0976"/>
<path d="M98.0942 94.7365C93.8369 94.7365 90.7621 94.077 88.87 92.7578C87.0724 91.3443 86.1736 88.6588 86.1736 84.7012V1.73302C87.1197 1.45034 88.4442 1.16765 90.1472 0.884969C91.9447 0.602281 93.8842 0.460938 95.9655 0.460938C100.128 0.460938 103.156 1.16765 105.048 2.58108C106.94 3.99451 107.886 6.68002 107.886 10.6376V93.6058C106.845 93.8885 105.474 94.1241 103.771 94.3125C102.068 94.5952 100.176 94.7365 98.0942 94.7365Z" fill="#2C0976"/>
<path d="M190.528 79.6129C190.528 84.0416 188.588 87.4338 184.709 89.7896C181.682 91.6741 177.945 93.1347 173.498 94.1712C169.052 95.3019 164.132 95.8673 158.739 95.8673C153.63 95.8673 148.995 95.3019 144.832 94.1712C140.669 93.1347 137.074 91.4386 134.047 89.0828C131.114 86.7271 128.796 83.7589 127.093 80.1783C125.485 76.5976 124.68 72.2631 124.68 67.1747V26.044C125.721 25.7613 127.093 25.4786 128.796 25.1959C130.499 24.9132 132.391 24.7719 134.472 24.7719C138.73 24.7719 141.757 25.4786 143.555 26.892C145.447 28.3055 146.393 30.991 146.393 34.9486V67.0334C146.393 71.2737 147.481 74.3361 149.657 76.2207C151.833 78.011 154.908 78.9062 158.881 78.9062C161.341 78.9062 163.375 78.7177 164.983 78.3408C166.686 77.8697 167.964 77.3985 168.815 76.9274V26.044C169.761 25.7613 171.086 25.4786 172.789 25.1959C174.491 24.9132 176.384 24.7719 178.465 24.7719C182.722 24.7719 185.797 25.4786 187.689 26.892C189.581 28.3055 190.528 30.991 190.528 34.9486V79.6129Z" fill="#2C0976"/>
<path d="M224.895 68.7295C226.219 72.6871 228.537 75.5139 231.848 77.2101C235.159 78.8119 238.991 79.6129 243.343 79.6129C247.317 79.6129 251.054 79.0946 254.554 78.0581C258.055 76.9274 260.893 75.7024 263.069 74.3832C264.488 75.3255 265.67 76.5505 266.617 78.0581C267.563 79.5658 268.036 81.2148 268.036 83.0051C268.036 85.1724 267.373 87.0569 266.049 88.6588C264.724 90.2607 262.88 91.627 260.514 92.7578C258.244 93.7943 255.5 94.5481 252.283 95.0192C249.161 95.5846 245.708 95.8673 241.924 95.8673C236.342 95.8673 231.186 95.1135 226.456 93.6058C221.725 92.0039 217.657 89.6953 214.251 86.68C210.845 83.5705 208.149 79.7071 206.162 75.0899C204.27 70.4727 203.324 65.0546 203.324 58.8355C203.324 52.8049 204.27 47.5752 206.162 43.1465C208.149 38.7177 210.751 35.0428 213.967 32.1217C217.279 29.2006 221.016 27.0805 225.178 25.7613C229.436 24.3479 233.788 23.6412 238.234 23.6412C243.059 23.6412 247.458 24.395 251.432 25.9026C255.5 27.3161 258.953 29.342 261.792 31.9804C264.724 34.6188 266.995 37.7754 268.603 41.4503C270.212 45.1253 271.016 49.13 271.016 53.4645C271.016 56.4798 270.212 58.7413 268.603 60.2489C266.995 61.7566 264.724 62.746 261.792 63.2171L224.895 68.7295ZM238.376 39.6129C234.308 39.6129 230.902 40.885 228.158 43.4291C225.509 45.8791 223.948 49.4598 223.475 54.1712L250.581 49.7896C250.391 47.3396 249.303 45.031 247.317 42.8638C245.33 40.6965 242.35 39.6129 238.376 39.6129Z" fill="#2C0976"/>
<path d="M320.113 23.6412C324.749 23.6412 329.101 24.395 333.169 25.9026C337.237 27.4103 340.737 29.6718 343.67 32.6871C346.698 35.7024 349.063 39.4715 350.766 43.9945C352.469 48.4232 353.32 53.6058 353.32 59.5422C353.32 65.4786 352.421 70.7083 350.624 75.2312C348.826 79.7542 346.272 83.5705 342.961 86.68C339.744 89.6953 335.818 92.0039 331.182 93.6058C326.641 95.1135 321.532 95.8673 315.855 95.8673C309.895 95.8673 304.786 95.1606 300.529 93.7472C296.272 92.3337 292.724 90.6376 289.886 88.6588C285.817 85.9262 283.783 82.3455 283.783 77.9168V1.73302C284.824 1.45034 286.196 1.16765 287.899 0.884969C289.602 0.602281 291.494 0.460938 293.575 0.460938C297.833 0.460938 300.86 1.16765 302.658 2.58108C304.55 3.99451 305.496 6.68002 305.496 10.6376V26.7507C307.388 25.9026 309.564 25.1959 312.024 24.6305C314.484 23.9709 317.18 23.6412 320.113 23.6412ZM316.139 40.6023C313.963 40.6023 311.977 40.9321 310.179 41.5917C308.476 42.1571 306.868 42.9109 305.354 43.8532V76.2207C306.489 76.9745 307.908 77.587 309.611 78.0581C311.314 78.5293 313.301 78.7648 315.572 78.7648C320.302 78.7648 324.039 77.1629 326.783 73.9592C329.621 70.7554 331.04 65.9497 331.04 59.5422C331.04 52.9462 329.668 48.1406 326.925 45.1252C324.276 42.1099 320.68 40.6023 316.139 40.6023Z" fill="#2C0976"/>
<path d="M384.545 68.7295C385.87 72.6871 388.188 75.5139 391.499 77.2101C394.81 78.8119 398.642 79.6129 402.994 79.6129C406.967 79.6129 410.704 79.0946 414.205 78.0581C417.705 76.9274 420.543 75.7024 422.719 74.3832C424.138 75.3255 425.321 76.5505 426.267 78.0581C427.213 79.5658 427.686 81.2148 427.686 83.0051C427.686 85.1724 427.024 87.0569 425.699 88.6588C424.375 90.2607 422.53 91.627 420.165 92.7578C417.894 93.7943 415.151 94.5481 411.934 95.0192C408.812 95.5846 405.359 95.8673 401.574 95.8673C395.993 95.8673 390.837 95.1135 386.106 93.6058C381.376 92.0039 377.308 89.6953 373.902 86.68C370.496 83.5705 367.8 79.7071 365.813 75.0899C363.921 70.4727 362.975 65.0546 362.975 58.8355C362.975 52.8049 363.921 47.5752 365.813 43.1465C367.8 38.7177 370.401 35.0428 373.618 32.1217C376.929 29.2006 380.666 27.0805 384.829 25.7613C389.086 24.3479 393.438 23.6412 397.885 23.6412C402.71 23.6412 407.109 24.395 411.083 25.9026C415.151 27.3161 418.604 29.342 421.442 31.9804C424.375 34.6188 426.646 37.7754 428.254 41.4503C429.862 45.1253 430.666 49.13 430.666 53.4645C430.666 56.4798 429.862 58.7413 428.254 60.2489C426.646 61.7566 424.375 62.746 421.442 63.2171L384.545 68.7295ZM398.027 39.6129C393.959 39.6129 390.553 40.885 387.809 43.4291C385.16 45.8791 383.599 49.4598 383.126 54.1712L410.231 49.7896C410.042 47.3396 408.954 45.031 406.967 42.8638C404.98 40.6965 402 39.6129 398.027 39.6129Z" fill="#2C0976"/>
<path d="M464.863 93.6058C463.917 93.8885 462.592 94.1241 460.889 94.3125C459.186 94.5952 457.294 94.7365 455.213 94.7365C450.955 94.7365 447.881 94.077 445.988 92.7578C444.096 91.3443 443.15 88.6588 443.15 84.7012V41.5917C443.15 38.9533 443.812 36.6918 445.137 34.8072C446.461 32.9227 448.306 31.2737 450.672 29.8602C453.794 27.9757 457.531 26.5151 461.883 25.4786C466.329 24.3479 470.965 23.7825 475.79 23.7825C485.629 23.7825 490.549 27.0805 490.549 33.6765C490.549 35.2784 490.312 36.7389 489.839 38.0581C489.366 39.3773 488.846 40.5081 488.278 41.4503C486.102 40.9792 483.453 40.7436 480.331 40.7436C477.587 40.7436 474.844 41.0734 472.1 41.733C469.357 42.3926 466.944 43.2878 464.863 44.4185V93.6058Z" fill="#2C0976"/>
<path d="M521.128 93.6058C520.182 93.8885 518.858 94.1241 517.155 94.3125C515.452 94.5952 513.56 94.7365 511.478 94.7365C507.221 94.7365 504.146 94.077 502.254 92.7578C500.362 91.3443 499.416 88.6588 499.416 84.7012V41.5917C499.416 38.9533 500.078 36.6918 501.403 34.8072C502.727 32.9227 504.572 31.2737 506.937 29.8602C510.059 27.9757 513.796 26.5151 518.148 25.4786C522.595 24.3479 527.231 23.7825 532.056 23.7825C541.895 23.7825 546.814 27.0805 546.814 33.6765C546.814 35.2784 546.578 36.7389 546.105 38.0581C545.632 39.3773 545.112 40.5081 544.544 41.4503C542.368 40.9792 539.719 40.7436 536.597 40.7436C533.853 40.7436 531.11 41.0734 528.366 41.733C525.622 42.3926 523.21 43.2878 521.128 44.4185V93.6058Z" fill="#2C0976"/>
<path d="M570.499 76.786C568.323 72.0746 565.816 65.9497 562.978 58.4115C560.234 50.779 557.349 40.9321 554.321 28.8708C555.457 27.6459 557.018 26.6093 559.004 25.7613C561.086 24.819 563.309 24.3479 565.674 24.3479C568.702 24.3479 571.162 25.0075 573.054 26.3267C574.946 27.5516 576.412 29.8602 577.453 33.2525C579.534 40.1311 581.616 46.9156 583.697 53.6058C585.873 60.296 588.049 67.0334 590.225 73.8178H590.793C591.928 70.6141 593.111 67.1276 594.34 63.3585C595.57 59.4951 596.753 55.5375 597.888 51.4857C599.024 47.3396 600.064 43.1936 601.01 39.0475C602.051 34.8072 602.95 30.7083 603.707 26.7507C606.639 25.1488 609.714 24.3479 612.931 24.3479C615.958 24.3479 618.56 25.0075 620.736 26.3267C622.912 27.6459 624 29.8131 624 32.8284C624 36.2207 623.385 40.5552 622.155 45.832C621.02 51.0145 619.459 56.4798 617.472 62.2277C615.58 67.8814 613.404 73.5351 610.944 79.1889C608.579 84.7483 606.119 89.6482 603.565 93.8885C598.267 102.84 593.489 109.483 589.232 113.818C584.974 118.247 580.67 120.461 576.318 120.461C572.817 120.461 569.932 119.377 567.661 117.21C565.39 115.137 564.019 112.452 563.546 109.154C566.573 106.515 569.695 103.406 572.912 99.8249C576.223 96.3384 579.014 92.8049 581.285 89.2242C579.676 88.753 577.973 87.7165 576.176 86.1146C574.473 84.4185 572.581 81.309 570.499 76.786Z" fill="#2C0976"/>
</svg>
